<?xml version="1.0" encoding="UTF-8"?>
<svg version="1.1" xmlns="http://www.w3.org/2000/svg" width="499" height="499">
<path d="M0 0 C-0.56365737 4.06593291 -1.51752632 7.85091799 -2.76489258 11.75952148 C-9.49239216 32.91878969 -11.31219127 57.66279241 -1 78 C3.02810425 84.78826134 7.42830275 91.03716194 15 94 C18.2140814 94.67012422 18.2140814 94.67012422 21 94 C23.72039283 91.85022616 24.47168017 90.12283553 25.0625 86.75 C25.30419922 85.42935547 25.30419922 85.42935547 25.55078125 84.08203125 C25.87796987 81.83723281 26.13710899 79.58220268 26.35546875 77.32421875 C27.1616399 69.38223564 28.16523623 62.85061911 34 57 C34.66 57 35.32 57 36 57 C36 56.34 36 55.68 36 55 C37.32 55 38.64 55 40 55 C40.20753906 55.92039063 40.41507812 56.84078125 40.62890625 57.7890625 C44.74651524 74.70743919 53.14473772 87.56083468 63.23144531 101.5402832 C65.10107863 104.14058078 66.9536373 106.75202054 68.796875 109.37109375 C69.35729492 110.16700928 69.91771484 110.9629248 70.49511719 111.78295898 C72.52127312 114.76795606 74.26388825 117.83779646 76 121 C76.47824219 121.74507813 76.95648438 122.49015625 77.44921875 123.2578125 C89.16457222 143.97362644 86.53804382 166.78651688 82 189 C82.40992188 188.278125 82.81984375 187.55625 83.2421875 186.8125 C83.78101563 185.884375 84.31984375 184.95625 84.875 184 C85.40867187 183.071875 85.94234375 182.14375 86.4921875 181.1875 C86.98976563 180.465625 87.48734375 179.74375 88 179 C88.66 179 89.32 179 90 179 C90.268125 178.030625 90.53625 177.06125 90.8125 176.0625 C92.56422718 169.93766668 94.53521418 163.87756618 97 158 C97.66 158 98.32 158 99 158 C105.55539854 185.4944871 100.01892165 212.66526807 86 237 C74.63066162 255.07911186 54.40907449 276.34881638 32.83203125 281.51953125 C30.875 281.8125 30.875 281.8125 28 282 C28.66526337 278.18348907 29.77829278 274.71259434 31.0625 271.0625 C37.14088482 251.26878532 29.08588853 233.38414012 19.98242188 216.06396484 C10.33267153 198.03441662 -3.33098556 179.08912961 -20.3984375 167.359375 C-22 166 -22 166 -23 163 C-21.12805463 161.12805463 -17.9826945 161.83201645 -15.4609375 161.80981445 C-2.08511585 161.823065 10.0650317 163.50406262 23 167 C22.566875 166.46890625 22.13375 165.9378125 21.6875 165.390625 C21.130625 164.68421875 20.57375 163.9778125 20 163.25 C19.443125 162.55390625 18.88625 161.8578125 18.3125 161.140625 C17 159 17 159 17 155 C28.00429277 155.84648406 39.25089525 164.77984583 46.40234375 172.640625 C53.02479257 181.27323985 55.92479965 190.45106488 58 201 C60.44008438 180.43357452 59.69933405 163.1608833 46.875 146.1875 C45.18695454 143.93178686 45.18695454 143.93178686 43 143 C43 142.34 43 141.68 43 141 C42.43410156 140.73574219 41.86820312 140.47148437 41.28515625 140.19921875 C38.83323441 138.9124837 36.68446479 137.43016658 34.4375 135.8125 C28.18486346 131.38855184 21.86173951 126.93086975 15 123.5 C4.08104942 118.04052471 -6.9534865 110.16507184 -14 100 C-14.69642104 112.36534249 -12.96644075 122.30875333 -9 134 C-8.6465275 135.32813632 -8.29996748 136.65876609 -8 138 C-13.55888172 137.73377003 -16.57532553 134.21521264 -20.375 130.5625 C-21.04329834 129.9243335 -21.71159668 129.28616699 -22.40014648 128.62866211 C-31.76260193 119.51605552 -36.72895375 110.23132439 -41 98 C-41.37640625 96.97003906 -41.7528125 95.94007813 -42.140625 94.87890625 C-47.1578729 72.23287367 -41.97528944 50.27908625 -30 31 C-25.10899584 23.41293003 -9.70424626 0 0 0 Z " fill="#E12E2D" transform="translate(255,108)"/>
<path d="M0 0 C0.99 0.33 1.98 0.66 3 1 C2.73445313 2.09957031 2.46890625 3.19914063 2.1953125 4.33203125 C1.83838673 5.82548381 1.48162481 7.31897554 1.125 8.8125 C0.95097656 9.53115234 0.77695313 10.24980469 0.59765625 10.99023438 C-6.11196525 39.19549512 -3.94541929 63.06470621 10.828125 88.09765625 C14.23640145 93.55550434 17.92841358 98.80276591 21.71484375 104.00390625 C23 106 23 106 23 108 C23.66 108 24.32 108 25 108 C25.9627103 109.3908182 26.91649599 110.78873073 27.82226562 112.21728516 C29.91018279 115.37772693 32.35829315 118.25451812 34.75 121.1875 C39.69824312 127.32536167 44.51200998 133.51330996 49 140 C49.73992187 141.06476563 50.47984375 142.12953125 51.2421875 143.2265625 C62.37709769 159.6475063 69.82021121 177.47325053 66.375 197.6875 C64.22140595 205.90086214 58.9929295 211.48617094 52.44140625 216.58984375 C43.3401151 221.84674952 28.84996721 221.65496146 18.8125 219 C17.18511191 218.39221457 15.58286603 217.7157725 14 217 C13.41686035 216.74186523 12.8337207 216.48373047 12.23291016 216.21777344 C2.55858387 211.87262714 -5.78666721 206.74621839 -14 200 C-15.06541016 199.14535156 -15.06541016 199.14535156 -16.15234375 198.2734375 C-19.54219127 195.4784258 -22.47607402 192.63445341 -25 189 C-25 188.34 -25 187.68 -25 187 C-25.59296875 186.76667969 -26.1859375 186.53335938 -26.796875 186.29296875 C-31.28985463 183.65613142 -33.4427164 178.39500764 -36 174 C-36.33612305 173.42491699 -36.67224609 172.84983398 -37.01855469 172.25732422 C-49.32749829 150.96319983 -56.40709476 123.56530381 -50.07421875 99.09765625 C-49 96 -49 96 -47 95 C-45.36210972 98.27578055 -45.46327464 101.95507869 -45.125 105.5625 C-44.18623095 114.62743281 -43.19529178 121.95018521 -37 129 C-37 129.66 -37 130.32 -37 131 C-33.98762418 131.59217644 -31.07541288 132.04241949 -28 132 C-24.92950123 129.85065086 -24.18308371 128.54925112 -23 125 C-22.45214592 118.20660936 -23.71899198 113.05620754 -25.84765625 106.6171875 C-27.11805171 102.6294377 -28.18001038 98.62294583 -29.1875 94.5625 C-29.35411133 93.90048584 -29.52072266 93.23847168 -29.69238281 92.55639648 C-34.32032118 73.79994196 -32.33663147 54.47380041 -24 37 C-23.50757813 35.92621094 -23.01515625 34.85242188 -22.5078125 33.74609375 C-16.58530099 21.31427812 -8.78539006 10.60470789 0 0 Z " fill="#EE9439" transform="translate(194,171)"/>
<path d="M0 0 C-0.56365737 4.06593291 -1.51752632 7.85091799 -2.76489258 11.75952148 C-9.49239216 32.91878969 -11.31219127 57.66279241 -1 78 C3.02810425 84.78826134 7.42830275 91.03716194 15 94 C18.2140814 94.67012422 18.2140814 94.67012422 21 94 C23.72039283 91.85022616 24.47168017 90.12283553 25.0625 86.75 C25.30419922 85.42935547 25.30419922 85.42935547 25.55078125 84.08203125 C25.87796987 81.83723281 26.13710899 79.58220268 26.35546875 77.32421875 C27.1616399 69.38223564 28.16523623 62.85061911 34 57 C34.66 57 35.32 57 36 57 C36 56.34 36 55.68 36 55 C37.32 55 38.64 55 40 55 C40.20753906 55.92039063 40.41507812 56.84078125 40.62890625 57.7890625 C45.40086089 77.39600585 56.25874069 93.53976228 69 109 C68.67 109.66 68.34 110.32 68 111 C67.01 111 66.02 111 65 111 C65 110.01 65 109.02 65 108 C62.69 108 60.38 108 58 108 C58.185625 107.401875 58.37125 106.80375 58.5625 106.1875 C59.22093687 103.83591238 59.22093687 103.83591238 58 101 C57.34 100.67 56.68 100.34 56 100 C54.9935725 98.33720673 53.99414593 96.67016516 53 95 C52.443125 94.46375 51.88625 93.9275 51.3125 93.375 C50 92 50 92 50 89 C49.34 89 48.68 89 48 89 C47.9071875 88.071875 47.9071875 88.071875 47.8125 87.125 C47.171081 84.72238859 47.171081 84.72238859 44.4375 83.75 C43.633125 83.5025 42.82875 83.255 42 83 C39.719279 84.87424716 39.719279 84.87424716 39.625 87.875 C39.73319383 92.55684206 41.44741651 96.77243983 43.02734375 101.1328125 C43.91864372 103.76017867 44.51525764 106.27332422 45 109 C45.185625 109.804375 45.37125 110.60875 45.5625 111.4375 C46.05891128 114.34505176 46.1338318 117.05570042 46 120 C45.67 120.33 45.34 120.66 45 121 C45.0321597 122.60506159 45.10065925 124.20946674 45.1875 125.8125 C45.26368813 130.65390933 45.26368813 130.65390933 43 133.625 C42.34 134.07875 41.68 134.5325 41 135 C40.67 134.34 40.34 133.68 40 133 C38.68 133 37.36 133 36 133 C36.33 133.99 36.66 134.98 37 136 C37.62648438 136.06058594 38.25296875 136.12117187 38.8984375 136.18359375 C39.71570313 136.26738281 40.53296875 136.35117188 41.375 136.4375 C42.59316406 136.55931641 42.59316406 136.55931641 43.8359375 136.68359375 C46 137 46 137 48 138 C48 139.98 48 141.96 48 144 C45 144 45 144 43 143 C43 142.34 43 141.68 43 141 C42.43410156 140.73574219 41.86820312 140.47148437 41.28515625 140.19921875 C38.83323441 138.9124837 36.68446479 137.43016658 34.4375 135.8125 C28.18486346 131.38855184 21.86173951 126.93086975 15 123.5 C4.08104942 118.04052471 -6.9534865 110.16507184 -14 100 C-14.69642104 112.36534249 -12.96644075 122.30875333 -9 134 C-8.6465275 135.32813632 -8.29996748 136.65876609 -8 138 C-13.55888172 137.73377003 -16.57532553 134.21521264 -20.375 130.5625 C-21.04329834 129.9243335 -21.71159668 129.28616699 -22.40014648 128.62866211 C-31.76260193 119.51605552 -36.72895375 110.23132439 -41 98 C-41.37640625 96.97003906 -41.7528125 95.94007813 -42.140625 94.87890625 C-47.1578729 72.23287367 -41.97528944 50.27908625 -30 31 C-25.10899584 23.41293003 -9.70424626 0 0 0 Z " fill="#EE4936" transform="translate(255,108)"/>
<path d="M0 0 C11.00429277 0.84648406 22.25089525 9.77984583 29.40234375 17.640625 C36.28880229 26.6173866 39.5115011 35.74010034 40 47 C38 46 38 46 36.3125 42.375 C32.59051756 34.71128708 26.80432327 30.15566115 19 27 C14.65450479 25.5515016 10.54143034 25.47734705 6 26 C2.14455202 27.99657127 0.40194908 29.39707638 -2 33 C-2.54776171 39.3503222 -2.13856281 45.73790453 -1 52 C-3.74536376 49.38480435 -5.92483031 46.79179541 -8 43.625 C-16.01385517 31.96691328 -25.69314112 20.40394162 -37.3984375 12.359375 C-39 11 -39 11 -40 8 C-38.12805463 6.12805463 -34.9826945 6.83201645 -32.4609375 6.80981445 C-19.08511585 6.823065 -6.9349683 8.50406262 6 12 C5.566875 11.46890625 5.13375 10.9378125 4.6875 10.390625 C4.130625 9.68421875 3.57375 8.9778125 3 8.25 C2.443125 7.55390625 1.88625 6.8578125 1.3125 6.140625 C0 4 0 4 0 0 Z " fill="#F9CAB9" transform="translate(272,263)"/>
<path d="M0 0 C0.99 0.33 1.98 0.66 3 1 C2.73445313 2.09957031 2.46890625 3.19914063 2.1953125 4.33203125 C1.83838673 5.82548381 1.48162481 7.31897554 1.125 8.8125 C0.95097656 9.53115234 0.77695313 10.24980469 0.59765625 10.99023438 C-6.11196525 39.19549512 -3.94541929 63.06470621 10.828125 88.09765625 C14.23640145 93.55550434 17.92841358 98.80276591 21.71484375 104.00390625 C23 106 23 106 23 108 C23.66 108 24.32 108 25 108 C25.66 109.65 26.32 111.3 27 113 C26.01 113.495 26.01 113.495 25 114 C22.33163655 112.66581827 21.67625711 110.72275347 20.27734375 108.18359375 C16.17869563 100.55365452 16.17869563 100.55365452 10 95 C9.855625 94.360625 9.71125 93.72125 9.5625 93.0625 C9.13834965 90.61789145 9.13834965 90.61789145 6 89 C5.67 88.01 5.34 87.02 5 86 C4.505 85.566875 4.01 85.13375 3.5 84.6875 C1.39495139 82.31932032 1.34279827 80.08518447 1 77 C0.34 77 -0.32 77 -1 77 C-5.78523232 63.24466429 -7.22999499 51.00181276 -6.83984375 36.41015625 C-7.00393403 32.91623398 -7.73660275 30.24519685 -9 27 C-8.01 27 -7.02 27 -6 27 C-5.83312552 24.58354218 -5.83312552 24.58354218 -6 22 C-6.66 21.34 -7.32 20.68 -8 20 C-8.33 19.67 -8.66 19.34 -9 19 C-11.2773501 21.81509993 -11.2773501 21.81509993 -11 25 C-12.4609375 27.12109375 -12.4609375 27.12109375 -14.375 29.4375 C-17.2554556 32.94027625 -19.62477537 35.90946275 -20.4375 40.4375 C-21.0918618 43.41848155 -22.43705137 45.39508562 -24 48 C-24.35015049 49.66321482 -24.68197057 51.33034549 -25 53 C-26 55.33333333 -27 57.66666667 -28 60 C-28.95098486 63.77509777 -29.11679893 67.28981712 -29.09765625 71.17578125 C-29.09443359 72.33271484 -29.09121094 73.48964844 -29.08789062 74.68164062 C-29.07951172 75.87982422 -29.07113281 77.07800781 -29.0625 78.3125 C-29.05798828 79.53001953 -29.05347656 80.74753906 -29.04882812 82.00195312 C-29.03706578 85.00135226 -29.02062826 88.00065089 -29 91 C-35.86614995 77.9750477 -31.85863604 60.44541559 -28 47 C-26.89693417 43.52510592 -25.56890791 40.28847254 -24 37 C-23.26136719 35.38931641 -23.26136719 35.38931641 -22.5078125 33.74609375 C-16.58530099 21.31427812 -8.78539006 10.60470789 0 0 Z " fill="#EAB055" transform="translate(194,171)"/>
<path d="M0 0 C1.32 0 2.64 0 4 0 C4.20753906 0.92039063 4.41507812 1.84078125 4.62890625 2.7890625 C9.40086089 22.39600585 20.25874069 38.53976228 33 54 C32.505 54.99 32.505 54.99 32 56 C31.01 56 30.02 56 29 56 C29 55.01 29 54.02 29 53 C26.69 53 24.38 53 22 53 C22.2784375 52.1028125 22.2784375 52.1028125 22.5625 51.1875 C23.22093687 48.83591238 23.22093687 48.83591238 22 46 C21.34 45.67 20.68 45.34 20 45 C18.9935725 43.33720673 17.99414593 41.67016516 17 40 C16.443125 39.46375 15.88625 38.9275 15.3125 38.375 C14 37 14 37 14 34 C13.34 34 12.68 34 12 34 C11.938125 33.38125 11.87625 32.7625 11.8125 32.125 C11.171081 29.72238859 11.171081 29.72238859 8.4375 28.75 C7.633125 28.5025 6.82875 28.255 6 28 C3.65026182 29.89755144 3.65026182 29.89755144 3.875 33.125 C3.91625 34.07375 3.9575 35.0225 4 36 C3.34 36 2.68 36 2 36 C-0.04492575 28.74630111 -1.37869046 21.83403937 -1.7890625 14.30078125 C-1.74923228 12.03756896 -1.74923228 12.03756896 -3 11 C-4.95031692 15.07723734 -5.21581971 18.31692422 -5.125 22.8125 C-5.10695313 23.97394531 -5.08890625 25.13539063 -5.0703125 26.33203125 C-5.04710937 27.21246094 -5.02390625 28.09289062 -5 29 C-5.66 29 -6.32 29 -7 29 C-7 30.98 -7 32.96 -7 35 C-7.99 34.34 -8.98 33.68 -10 33 C-10.13955229 30.20592038 -10.09948478 27.70663593 -9.875 24.9375 C-9.81932861 24.16760742 -9.76365723 23.39771484 -9.70629883 22.60449219 C-9.04454987 14.74321344 -7.78503523 7.78503523 -2 2 C-1.34 2 -0.68 2 0 2 C0 1.34 0 0.68 0 0 Z " fill="#F37C61" transform="translate(291,163)"/>
<path d="M0 0 C2 1.1875 2 1.1875 4 3 C4.25 5.6875 4.25 5.6875 4 8 C4.99 7.67 5.98 7.34 7 7 C7 8.65 7 10.3 7 12 C6.01 12.495 6.01 12.495 5 13 C5.04125 14.0725 5.0825 15.145 5.125 16.25 C5.0114175 19.65747485 4.78726636 21.20739631 3 24 C3.99 24.33 4.98 24.66 6 25 C5.34 27.31 4.68 29.62 4 32 C4.60328125 32 5.2065625 32 5.828125 32 C9.55208333 32 13.27604167 32 17 32 C16.67 30.02 16.34 28.04 16 26 C16.763125 26.165 17.52625 26.33 18.3125 26.5 C21.03596236 27.09145396 21.03596236 27.09145396 24 27 C25.68798827 25.56249809 25.68798827 25.56249809 27 24 C27.66 24.33 28.32 24.66 29 25 C29 24.34 29 23.68 29 23 C29.66 23 30.32 23 31 23 C31.66 21.35 32.32 19.7 33 18 C34.32 18.33 35.64 18.66 37 19 C37.33 17.68 37.66 16.36 38 15 C38.66 15.33 39.32 15.66 40 16 C40 14.68 40 13.36 40 12 C40.99 12 41.98 12 43 12 C43.33 9.69 43.66 7.38 44 5 C44.495 5.99 44.495 5.99 45 7 C45.66 7 46.32 7 47 7 C47 6.01 47 5.02 47 4 C47.99 4 48.98 4 50 4 C41.72713224 22.52777675 20.39901368 37.59081635 2 45 C-0.42825109 45.61532213 -2.48954286 45.88588831 -5 46 C-4.33473663 42.18348907 -3.22170722 38.71259434 -1.9375 35.0625 C1.31741901 24.60194507 0.1725305 14.21021954 -0.87890625 3.44921875 C-0.91886719 2.64097656 -0.95882813 1.83273437 -1 1 C-0.67 0.67 -0.34 0.34 0 0 Z " fill="#B11D26" transform="translate(288,344)"/>
<path d="M0 0 C0.99 0.33 1.98 0.66 3 1 C1.68 6.61 0.36 12.22 -1 18 C-1.33 18 -1.66 18 -2 18 C-2.33 15.36 -2.66 12.72 -3 10 C-4.32 10.33 -5.64 10.66 -7 11 C-7.103125 11.515625 -7.20625 12.03125 -7.3125 12.5625 C-8 15 -8 15 -9.5625 18.5625 C-11.19290307 21.84029583 -11.19290307 21.84029583 -11 25 C-12.4609375 27.12109375 -12.4609375 27.12109375 -14.375 29.4375 C-17.2554556 32.94027625 -19.62477537 35.90946275 -20.4375 40.4375 C-21.0918618 43.41848155 -22.43705137 45.39508562 -24 48 C-24.35015049 49.66321482 -24.68197057 51.33034549 -25 53 C-26 55.33333333 -27 57.66666667 -28 60 C-28.95098486 63.77509777 -29.11679893 67.28981712 -29.09765625 71.17578125 C-29.09443359 72.33271484 -29.09121094 73.48964844 -29.08789062 74.68164062 C-29.07951172 75.87982422 -29.07113281 77.07800781 -29.0625 78.3125 C-29.05798828 79.53001953 -29.05347656 80.74753906 -29.04882812 82.00195312 C-29.03706578 85.00135226 -29.02062826 88.00065089 -29 91 C-35.86614995 77.9750477 -31.85863604 60.44541559 -28 47 C-26.89693417 43.52510592 -25.56890791 40.28847254 -24 37 C-23.26136719 35.38931641 -23.26136719 35.38931641 -22.5078125 33.74609375 C-16.58530099 21.31427812 -8.78539006 10.60470789 0 0 Z " fill="#E9BE6D" transform="translate(194,171)"/>
<path d="M0 0 C2.475 0.495 2.475 0.495 5 1 C5.33 1.99 5.66 2.98 6 4 C7.83284443 5.12516085 7.83284443 5.12516085 10 6 C11.33333333 6.66666667 12.66666667 7.33333333 14 8 C14.66 6.68 15.32 5.36 16 4 C16.99 4.66 17.98 5.32 19 6 C18.01 7.485 18.01 7.485 17 9 C17.33 9.99 17.66 10.98 18 12 C18.680625 11.87625 19.36125 11.7525 20.0625 11.625 C23.36933464 12.0471491 23.95109843 12.61899625 26.3125 14.8125 C31.84542543 19.90135116 37.64772026 21.09972085 45 22 C45.33 22.33 45.66 22.66 46 23 C53.69261815 23.43737294 61.35617729 22.84262613 69 22 C69 21.34 69 20.68 69 20 C69.99 20 70.98 20 72 20 C72 19.34 72 18.68 72 18 C72.99 18 73.98 18 75 18 C74.505 16.02 74.505 16.02 74 14 C74.66 14 75.32 14 76 14 C76.495 15.98 76.495 15.98 77 18 C75.82347668 18.9717777 74.63304934 19.92672747 73.4375 20.875 C72.44556641 21.67550781 72.44556641 21.67550781 71.43359375 22.4921875 C62.64376842 27.9382109 50.02641648 26.95642596 40.1015625 25.60546875 C37.5881769 24.94066539 35.3710028 24.07216819 33 23 C32.41686035 22.74186523 31.8337207 22.48373047 31.23291016 22.21777344 C19.5268471 16.96008881 7.64268548 10.64516906 0 0 Z " fill="#D9935B" transform="translate(175,365)"/>
<path d="M0 0 C0.66 0 1.32 0 2 0 C2 0.66 2 1.32 2 2 C2.99 1.67 3.98 1.34 5 1 C7 5.75 7 5.75 7 8 C9.475 8.495 9.475 8.495 12 9 C12.33 10.98 12.66 12.96 13 15 C13.61875 15.061875 14.2375 15.12375 14.875 15.1875 C17 16 17 16 18.25 18.5625 C18.4975 19.366875 18.745 20.17125 19 21 C15.42644681 19.45311471 12.87441444 17.29462895 10 14.6875 C9.154375 13.92824219 8.30875 13.16898438 7.4375 12.38671875 C5.06068498 10.05942071 3.01860475 7.64007334 1 5 C0.30357896 17.36534249 2.03355925 27.30875333 6 39 C6.3534725 40.32813632 6.70003252 41.65876609 7 43 C1.41168791 42.75424249 -1.53734626 39.12711988 -5.3125 35.4375 C-5.95767578 34.82197266 -6.60285156 34.20644531 -7.26757812 33.57226562 C-8.85363696 32.0566983 -10.43047969 30.53265772 -12 29 C-10.140625 28.38671875 -10.140625 28.38671875 -8 28 C-5.75 29.8125 -5.75 29.8125 -4 32 C-4 32.66 -4 33.32 -4 34 C-2.515 33.505 -2.515 33.505 -1 33 C-1.33 33 -1.66 33 -2 33 C-1.88185874 28.62155592 -1.75761831 24.24334071 -1.62768555 19.86523438 C-1.58433411 18.37537359 -1.54265916 16.88546305 -1.50268555 15.39550781 C-1.44498785 13.25570673 -1.38129245 11.11615615 -1.31640625 8.9765625 C-1.27974854 7.68830566 -1.24309082 6.40004883 -1.20532227 5.07275391 C-1 2 -1 2 0 0 Z " fill="#D6595A" transform="translate(240,203)"/>
<path d="M0 0 C0.99 0 1.98 0 3 0 C11.05918281 8.62014681 14.49802261 19.42942127 15 31 C13 30 13 30 11.3125 26.375 C7.90561828 19.36009224 2.88014564 14.95502438 -4.203125 11.82421875 C-6 11 -6 11 -9 9 C-5.535 8.505 -5.535 8.505 -2 8 C-0.74335022 5.09399739 0 3.20395416 0 0 Z " fill="#E7B6AB" transform="translate(297,279)"/>
<path d="M0 0 C-0.71283682 5.12914773 -2.06756436 9.93375614 -3.5625 14.875 C-3.79646484 15.65875 -4.03042969 16.4425 -4.27148438 17.25 C-4.84443538 19.16763195 -5.42177191 21.08395266 -6 23 C-6.99 22.67 -7.98 22.34 -9 22 C-9 19.36 -9 16.72 -9 14 C-14.01698309 17.63378311 -14.01698309 17.63378311 -16.9375 22.875 C-16.958125 23.57625 -16.97875 24.2775 -17 25 C-19.64 25 -22.28 25 -25 25 C-20.84637658 18.13749175 -8.82594442 0 0 0 Z " fill="#DE705E" transform="translate(255,108)"/>
<path d="M0 0 C0.66 0 1.32 0 2 0 C4.92409022 12.26414539 5.61377613 23.49323503 4 36 C3.67 36 3.34 36 3 36 C2.505 26.595 2.505 26.595 2 17 C1.34 17 0.68 17 0 17 C-0.33 17.66 -0.66 18.32 -1 19 C-1.66 19 -2.32 19 -3 19 C-4.32 21.31 -5.64 23.62 -7 26 C-7.66 26 -8.32 26 -9 26 C-9.33 26.99 -9.66 27.98 -10 29 C-10.66 29 -11.32 29 -12 29 C-12 30.32 -12 31.64 -12 33 C-13.65 33 -15.3 33 -17 33 C-17.17835515 28.45194365 -16.99785435 25.1205746 -15 21 C-14.67 21 -14.34 21 -14 21 C-14.33 24.3 -14.66 27.6 -15 31 C-14.59007812 30.278125 -14.18015625 29.55625 -13.7578125 28.8125 C-13.21898437 27.884375 -12.68015625 26.95625 -12.125 26 C-11.59132813 25.071875 -11.05765625 24.14375 -10.5078125 23.1875 C-9.76144531 22.1046875 -9.76144531 22.1046875 -9 21 C-8.34 21 -7.68 21 -7 21 C-6.731875 20.030625 -6.46375 19.06125 -6.1875 18.0625 C-4.43577282 11.93766668 -2.46478582 5.87756618 0 0 Z " fill="#D04A4C" transform="translate(352,266)"/>
<path d="M0 0 C3.02093215 3.02093215 2.46676834 6.56372072 2.625 10.625 C2.66367188 11.42679687 2.70234375 12.22859375 2.7421875 13.0546875 C2.83653931 15.03607556 2.91936215 17.01800645 3 19 C2.01 18.34 1.02 17.68 0 17 C-0.65479584 29.85637204 -0.65479584 29.85637204 2.26953125 42.21484375 C4.95455759 48.7766461 4.5049465 56.99551964 5 64 C-4.93183765 49.10224353 -5.50941844 25.18857289 -3 8 C-1.47231165 1.47231165 -1.47231165 1.47231165 0 0 Z " fill="#E1B677" transform="translate(146,266)"/>
<path d="M0 0 C0.99 0 1.98 0 3 0 C-3.27322579 14.04941193 -17.22283804 25.14050862 -30 33 C-30.33 32.34 -30.66 31.68 -31 31 C-31.598125 31.20625 -32.19625 31.4125 -32.8125 31.625 C-35 32 -35 32 -38 30 C-35.36 29.34 -32.72 28.68 -30 28 C-30.33 26.02 -30.66 24.04 -31 22 C-30.236875 22.165 -29.47375 22.33 -28.6875 22.5 C-25.96403764 23.09145396 -25.96403764 23.09145396 -23 23 C-21.31201173 21.56249809 -21.31201173 21.56249809 -20 20 C-19.34 20.33 -18.68 20.66 -18 21 C-18 20.34 -18 19.68 -18 19 C-17.34 19 -16.68 19 -16 19 C-15.34 17.35 -14.68 15.7 -14 14 C-12.68 14.33 -11.36 14.66 -10 15 C-9.67 13.68 -9.34 12.36 -9 11 C-8.34 11.33 -7.68 11.66 -7 12 C-7 10.68 -7 9.36 -7 8 C-6.01 8 -5.02 8 -4 8 C-3.67 5.69 -3.34 3.38 -3 1 C-2.505 1.99 -2.505 1.99 -2 3 C-1.34 3 -0.68 3 0 3 C0 2.01 0 1.02 0 0 Z " fill="#C12127" transform="translate(335,348)"/>
<path d="M0 0 C0.66 0.33 1.32 0.66 2 1 C1.855625 1.75023437 1.71125 2.50046875 1.5625 3.2734375 C0.35438207 9.93486552 -0.26945368 16.23371881 0 23 C0.66 23.33 1.32 23.66 2 24 C1.67 24.99 1.34 25.98 1 27 C1.08499406 28.69165588 1.23686517 30.38063518 1.4375 32.0625 C2 36.91139241 2 36.91139241 2 39 C2.66 39.33 3.32 39.66 4 40 C4.39044206 41.31774196 4.70955086 42.65667272 5 44 C5.350625 44.969375 5.70125 45.93875 6.0625 46.9375 C6.95060025 49.83862749 7.17670344 51.9960415 7 55 C7.66 55.33 8.32 55.66 9 56 C7.68 57.32 6.36 58.64 5 60 C4.73445312 59.13117188 4.46890625 58.26234375 4.1953125 57.3671875 C3.66550781 55.63855469 3.66550781 55.63855469 3.125 53.875 C2.77695313 52.73804688 2.42890625 51.60109375 2.0703125 50.4296875 C1.38302554 48.22735923 0.66417301 46.03449741 -0.09375 43.85546875 C-2.57468978 36.0383697 -2.11787102 27.50382813 -2.1875 19.375 C-2.20055176 18.49255615 -2.21360352 17.6101123 -2.22705078 16.70092773 C-2.2347131 10.83870958 -1.4576105 5.68064803 0 0 Z " fill="#EBA847" transform="translate(166,227)"/>
<path d="M0 0 C2.6942583 2.29011956 4.24929082 5.00495574 5.9375 8.0859375 C6.72596084 9.50632651 7.57615556 10.89280941 8.45703125 12.2578125 C10.30669269 15.54505891 11.51801056 18.93146725 12.6875 22.5 C12.91244141 23.15097656 13.13738281 23.80195313 13.36914062 24.47265625 C14.57041689 28.08743893 15.27118844 31.18870306 15 35 C12.7522025 32.94766315 11.9977758 31.99332739 11 29 C10.01 29 9.02 29 8 29 C8 27.02 8 25.04 8 23 C7.01 22.67 6.02 22.34 5 22 C5.33 20.68 5.66 19.36 6 18 C5.34 17.67 4.68 17.34 4 17 C3.855625 16.34 3.71125 15.68 3.5625 15 C3.376875 14.34 3.19125 13.68 3 13 C2.01 12.67 1.02 12.34 0 12 C0.33 11.34 0.66 10.68 1 10 C0.67 9.34 0.34 8.68 0 8 C-0.13415472 5.3276379 -0.04318541 2.67749512 0 0 Z " fill="#DE5C4D" transform="translate(324,219)"/>
<path d="M0 0 C0.33 0 0.66 0 1 0 C0.9592334 0.70382813 0.9184668 1.40765625 0.87646484 2.1328125 C-0.17203757 21.08627203 -0.78607438 37.30664507 7 55 C7.6721442 56.6644652 8.34070742 58.33040259 9 60 C7.68 59.67 6.36 59.34 5 59 C5 59.66 5 60.32 5 61 C3.68 60.67 2.36 60.34 1 60 C1.515625 59.443125 2.03125 58.88625 2.5625 58.3125 C4.29476698 56.05914993 4.29476698 56.05914993 3.6875 53.25 C3.3471875 52.13625 3.3471875 52.13625 3 51 C2.01 50.67 1.02 50.34 0 50 C-0.92092281 45.34462644 -1.12205997 40.85314567 -1.0625 36.125 C-1.05798828 35.43664062 -1.05347656 34.74828125 -1.04882812 34.0390625 C-1.03716336 32.35933665 -1.01923271 30.67965625 -1 29 C-1.66 29 -2.32 29 -3 29 C-3.35396698 18.78739713 -2.84613188 9.89369653 0 0 Z " fill="#DE8B7F" transform="translate(247,131)"/>
<path d="M0 0 C2.73692042 2.61597812 4.98699726 5.22833922 7.09375 8.37109375 C7.64933594 9.19287109 8.20492188 10.01464844 8.77734375 10.86132812 C9.34582031 11.71146484 9.91429687 12.56160156 10.5 13.4375 C15.49322293 20.90647841 15.49322293 20.90647841 21 28 C20.67 28.66 20.34 29.32 20 30 C19.01 30 18.02 30 17 30 C17 29.01 17 28.02 17 27 C14.69 27 12.38 27 10 27 C10.185625 26.401875 10.37125 25.80375 10.5625 25.1875 C11.22093687 22.83591238 11.22093687 22.83591238 10 20 C9.34 19.67 8.68 19.34 8 19 C6.9935725 17.33720673 5.99414593 15.67016516 5 14 C4.443125 13.46375 3.88625 12.9275 3.3125 12.375 C2 11 2 11 2 8 C1.34 8 0.68 8 0 8 C0 5.36 0 2.72 0 0 Z " fill="#DC8C7F" transform="translate(303,189)"/>
<path d="M0 0 C0.66 0 1.32 0 2 0 C1.95456055 1.43049683 1.95456055 1.43049683 1.90820312 2.88989258 C1.79591069 6.42894012 1.68423869 9.96800701 1.57275391 13.50708008 C1.52442063 15.03866095 1.47591922 16.57023653 1.42724609 18.10180664 C1.35730466 20.30353445 1.28796838 22.50528061 1.21875 24.70703125 C1.19687622 25.39150833 1.17500244 26.07598541 1.15246582 26.78120422 C1.06676924 29.52252479 1 32.25710055 1 35 C0.01 34.67 -0.98 34.34 -2 34 C-2.268125 33.360625 -2.53625 32.72125 -2.8125 32.0625 C-3.91161165 29.661178 -3.91161165 29.661178 -7.125 28.75 C-8.07375 28.5025 -9.0225 28.255 -10 28 C-9.75 25.125 -9.75 25.125 -9 22 C-6.84139132 20.46808416 -5.63707871 20 -3 20 C-0.75040277 16.62560416 -0.80192866 15.60822302 -0.9375 11.6875 C-1.01778367 7.65190731 -0.85754703 3.966155 0 0 Z " fill="#E3352D" transform="translate(238,203)"/>
<path d="M0 0 C3 1 3 1 4.4921875 3.58984375 C7.35582734 10.52244076 8.74618269 14.96315032 5.9296875 22.07421875 C5.29576412 23.38734575 4.65209836 24.69580328 4 26 C3.01 25.67 2.02 25.34 1 25 C0.24636948 21.64908229 -0.11979937 18.56890188 -0.09765625 15.13671875 C-0.09443359 14.25048828 -0.09121094 13.36425781 -0.08789062 12.45117188 C-0.07951172 11.53916016 -0.07113281 10.62714844 -0.0625 9.6875 C-0.05798828 8.75615234 -0.05347656 7.82480469 -0.04882812 6.86523438 C-0.03709234 4.57675627 -0.02067363 2.28841192 0 0 Z " fill="#F09D3C" transform="translate(145,281)"/>
<path d="M0 0 C1.27674484 2.55348969 1.1327901 4.39882514 1.125 7.25 C1.12757813 8.18328125 1.13015625 9.1165625 1.1328125 10.078125 C1 13 1 13 0.52734375 15.6171875 C-0.26216862 20.68176315 -0.37027905 25.75751106 -0.5625 30.875 C-0.60568359 31.94492188 -0.64886719 33.01484375 -0.69335938 34.1171875 C-0.79892817 36.74467754 -0.90103791 39.37225422 -1 42 C-1.33 42 -1.66 42 -2 42 C-2 35.73 -2 29.46 -2 23 C-2.66 23 -3.32 23 -4 23 C-4.66 21.02 -5.32 19.04 -6 17 C-5.01 17 -4.02 17 -3 17 C-2.83312552 14.58354218 -2.83312552 14.58354218 -3 12 C-3.66 11.34 -4.32 10.68 -5 10 C-6 9 -6 9 -7 7 C-4 0 -4 0 0 0 Z " fill="#ECBD75" transform="translate(191,181)"/>
<path d="M0 0 C6.27 0 12.54 0 19 0 C19 0.66 19 1.32 19 2 C16.525 1.505 16.525 1.505 14 1 C14 1.66 14 2.32 14 3 C12.68 3 11.36 3 10 3 C9.67 3.99 9.34 4.98 9 6 C9.66 6.33 10.32 6.66 11 7 C11.4125 7.7425 11.825 8.485 12.25 9.25 C14.42211648 12.6633259 16.81610915 14.52364045 20 17 C19.67 17.99 19.34 18.98 19 20 C4.94110787 8.03498542 4.94110787 8.03498542 -1 2 C-0.67 1.34 -0.34 0.68 0 0 Z " fill="#F2E1DB" transform="translate(233,270)"/>
<path d="M0 0 C0.66 0 1.32 0 2 0 C0.87548273 2.9719385 -0.22293791 5.33440687 -2 8 C-2.2165625 9.11375 -2.2165625 9.11375 -2.4375 10.25 C-3.15014331 13.73403396 -4.60128617 16.7363344 -6 20 C-6.95098486 23.77509777 -7.11679893 27.28981712 -7.09765625 31.17578125 C-7.09443359 32.33271484 -7.09121094 33.48964844 -7.08789062 34.68164062 C-7.07951172 35.87982422 -7.07113281 37.07800781 -7.0625 38.3125 C-7.05798828 39.53001953 -7.05347656 40.74753906 -7.04882812 42.00195312 C-7.03706578 45.00135226 -7.02062826 48.00065089 -7 51 C-12.55330073 40.46549702 -10.66018266 26.51665661 -8.25 15.25 C-8.09313721 14.4878418 -7.93627441 13.72568359 -7.7746582 12.94042969 C-6.72750411 8.46654542 -5.50573165 5.95364793 -2 3 C-1.34 2.01 -0.68 1.02 0 0 Z " fill="#EBBB6E" transform="translate(172,211)"/>
<path d="M0 0 C0.66 0 1.32 0 2 0 C2 0.66 2 1.32 2 2 C2.99 1.67 3.98 1.34 5 1 C7 5.75 7 5.75 7 8 C8.65 8.33 10.3 8.66 12 9 C12.33 10.98 12.66 12.96 13 15 C13.61875 15.061875 14.2375 15.12375 14.875 15.1875 C17 16 17 16 18.25 18.5625 C18.4975 19.366875 18.745 20.17125 19 21 C15.42644681 19.45311471 12.87441444 17.29462895 10 14.6875 C9.154375 13.92824219 8.30875 13.16898438 7.4375 12.38671875 C5 10 5 10 1 5 C1 12.26 1 19.52 1 27 C-0.88295885 23.2340823 -1.24970071 22.0462138 -1.23046875 18.0859375 C-1.22853516 17.16039062 -1.22660156 16.23484375 -1.22460938 15.28125 C-1.21236328 14.3221875 -1.20011719 13.363125 -1.1875 12.375 C-1.18685547 11.40820312 -1.18621094 10.44140625 -1.18554688 9.4453125 C-1.14052002 2.28104005 -1.14052002 2.28104005 0 0 Z " fill="#E16C64" transform="translate(240,203)"/>
<path d="M0 0 C1.33332095 2.6666419 0.67102033 4.16680303 0 7 C-0.66 6.67 -1.32 6.34 -2 6 C-3.95031692 10.07723734 -4.21581971 13.31692422 -4.125 17.8125 C-4.10695313 18.97394531 -4.08890625 20.13539063 -4.0703125 21.33203125 C-4.04710937 22.21246094 -4.02390625 23.09289062 -4 24 C-4.66 24 -5.32 24 -6 24 C-6 25.98 -6 27.96 -6 30 C-6.99 29.34 -7.98 28.68 -9 28 C-9.13955142 25.20593791 -9.09984819 22.70660547 -8.875 19.9375 C-8.81860352 19.16978271 -8.76220703 18.40206543 -8.70410156 17.61108398 C-8.22636484 11.99767754 -7.50909845 7.10780757 -5 2 C-2.3125 0.4375 -2.3125 0.4375 0 0 Z " fill="#D7513C" transform="translate(290,168)"/>
<path d="M0 0 C0.33 0.66 0.66 1.32 1 2 C0.33407361 3.69811229 -0.34440607 5.39312419 -1.10546875 7.05078125 C-1.98684323 8.97133089 -2.77435406 10.91473958 -3.5625 12.875 C-5 16 -5 16 -7 17 C-7.93929508 19.21474558 -7.93929508 19.21474558 -8.7265625 21.91015625 C-9.0359375 22.89951172 -9.3453125 23.88886719 -9.6640625 24.90820312 C-9.98117188 25.94912109 -10.29828125 26.99003906 -10.625 28.0625 C-11.11226562 29.62967773 -11.11226562 29.62967773 -11.609375 31.22851562 C-12.41309814 33.81697691 -13.20962689 36.4074372 -14 39 C-14.66 39 -15.32 39 -16 39 C-16 41.31 -16 43.62 -16 46 C-16.33 46 -16.66 46 -17 46 C-17.20619375 40.23301861 -16.66981365 35.45015471 -15 29.9375 C-14.78287354 29.20942139 -14.56574707 28.48134277 -14.34204102 27.73120117 C-11.15878956 17.66706999 -5.92039808 8.68940386 0 0 Z " fill="#D67D73" transform="translate(229,133)"/>
<path d="M0 0 C0.66 0 1.32 0 2 0 C3.60903135 2.31700515 4.84852293 4.28589379 5.4375 7.0625 C6.22662253 9.78058873 7.99445127 11.05712467 10 13 C10.33 13.99 10.66 14.98 11 16 C11.99 16.66 12.98 17.32 14 18 C14.33 18.99 14.66 19.98 15 21 C15.66 21.639375 16.32 22.27875 17 22.9375 C19.05502754 25.05674715 19.59106845 26.13747914 20 29 C20.66 29 21.32 29 22 29 C22 29.99 22 30.98 22 32 C22.66 32.33 23.32 32.66 24 33 C24 33.66 24 34.32 24 35 C23.34 35 22.68 35 22 35 C18 30.52941176 18 30.52941176 18 28 C17.40832031 27.76925781 16.81664062 27.53851563 16.20703125 27.30078125 C8.81380604 22.94335825 3.72540016 9.68859182 0 2 C0 1.34 0 0.68 0 0 Z " fill="#DAA065" transform="translate(151,330)"/>
<path d="M0 0 C0.99 0.33 1.98 0.66 3 1 C1.68 6.61 0.36 12.22 -1 18 C-1.33 18 -1.66 18 -2 18 C-2.33 15.36 -2.66 12.72 -3 10 C-4.32 10.33 -5.64 10.66 -7 11 C-7.12375 11.5775 -7.2475 12.155 -7.375 12.75 C-8.62009367 17.23233722 -10.60153885 19.82810292 -14 23 C-14.66 22.67 -15.32 22.34 -16 22 C-11.23880586 14.08508883 -5.98855389 7.02059493 0 0 Z " fill="#E4C188" transform="translate(194,171)"/>
<path d="M0 0 C4.56107677 0.46329677 6.35891067 1.93748925 9.3125 5.375 C10.00988281 6.16648437 10.70726562 6.95796875 11.42578125 7.7734375 C13 10 13 10 13 13 C6.375 13.125 6.375 13.125 3 12 C2.05078125 10.29296875 2.05078125 10.29296875 1.3125 8.1875 C1.06113281 7.50042969 0.80976563 6.81335938 0.55078125 6.10546875 C0 4 0 4 0 0 Z " fill="#C8484F" transform="translate(292,259)"/>
<path d="M0 0 C0.66 0 1.32 0 2 0 C2 7.92 2 15.84 2 24 C1.34 24 0.68 24 0 24 C-0.144375 24.9075 -0.28875 25.815 -0.4375 26.75 C-0.86409473 29.21476956 -1.35074221 31.58847107 -2 34 C-1.01 34 -0.02 34 1 34 C1 33.34 1 32.68 1 32 C2.32 32 3.64 32 5 32 C5.33 31.01 5.66 30.02 6 29 C8.6352539 27.57553843 10.19404974 26.83154913 13.16796875 27.453125 C13.77253906 27.63359375 14.37710937 27.8140625 15 28 C12.98692526 29.15940996 10.96412862 30.30194823 8.9375 31.4375 C7.81214844 32.07558594 6.68679688 32.71367187 5.52734375 33.37109375 C1.92102163 35.03647174 -1.0641297 35.64401683 -5 36 C-4.35006628 32.24406722 -3.24137924 28.88765275 -1.9375 25.3125 C0.7306324 16.93244516 0.35182378 8.70763863 0 0 Z " fill="#B97F84" transform="translate(288,354)"/>
<path d="M0 0 C0 0.33 0 0.66 0 1 C-0.65226562 1.02578125 -1.30453125 1.0515625 -1.9765625 1.078125 C-7.73054878 1.45154004 -11.45831771 2.13957005 -16 6 C-20.0320122 12.0480183 -18.2626525 21.05541126 -17 28 C-19.47192079 25.92677611 -20.84578867 24.462634 -21.875 21.375 C-22.01825438 17.50713162 -21.3275367 14.23826683 -20.48046875 10.48046875 C-19.85256655 7.23885981 -19.85693633 4.29046439 -20 1 C-13.34362157 -0.23839599 -6.7528064 -0.09139136 0 0 Z " fill="#F0ACA6" transform="translate(288,287)"/>
<path d="M0 0 C0.66 0 1.32 0 2 0 C1.74795843 12.30421132 -2.10581963 22.82352377 -7 34 C-7.33 34 -7.66 34 -8 34 C-7.24581006 26.58379888 -7.24581006 26.58379888 -6 23.625 C-4.98642229 20.96435851 -4.7708137 18.94786314 -4.5625 16.125 C-4.18063263 11.45927505 -3.01652751 8.20109898 -1 4 C-0.62691369 2.67723944 -0.26953585 1.34767923 0 0 Z " fill="#C9242E" transform="translate(353,302)"/>
<path d="M0 0 C1.90234375 0.42578125 1.90234375 0.42578125 3.9375 1.3125 C6.61250952 2.45156957 9.16042203 3.35839513 12 4 C12 4.99 12 5.98 12 7 C12.66 7 13.32 7 14 7 C14.33 8.65 14.66 10.3 15 12 C15.66 12 16.32 12 17 12 C17 11.34 17 10.68 17 10 C17.66 10 18.32 10 19 10 C19.36552803 11.41377782 19.71695495 12.83120576 20.0625 14.25 C20.35833984 15.43335938 20.35833984 15.43335938 20.66015625 16.640625 C21.01497267 19.10394822 20.76877544 20.65604132 20 23 C19.67128906 22.3709375 19.34257812 21.741875 19.00390625 21.09375 C13.75764796 11.65332858 7.52001268 5.06036732 -3 2 C-2.01 1.34 -1.02 0.68 0 0 Z " fill="#F4A095" transform="translate(291,287)"/>
<path d="M0 0 C3.05723978 2.8565457 5.25516494 5.74919541 7.4375 9.3125 C9.50755368 12.6495693 11.60256364 15.90502924 13.9375 19.0625 C16 22 16 22 16 24 C16.66 24 17.32 24 18 24 C18.66 25.65 19.32 27.3 20 29 C19.34 29.33 18.68 29.66 18 30 C15.33163655 28.66581827 14.67625711 26.72275347 13.27734375 24.18359375 C9.17869563 16.55365452 9.17869563 16.55365452 3 11 C1.04534116 7.01550313 0 4.47725284 0 0 Z " fill="#E2B873" transform="translate(201,255)"/>
<path d="M0 0 C0.99 0 1.98 0 3 0 C-1.36459106 9.77486539 -10.39861313 17.68426024 -18 25 C-19.125 21.25 -19.125 21.25 -18 19 C-17.34 19 -16.68 19 -16 19 C-15.34 17.35 -14.68 15.7 -14 14 C-12.68 14.33 -11.36 14.66 -10 15 C-9.67 13.68 -9.34 12.36 -9 11 C-8.34 11.33 -7.68 11.66 -7 12 C-7 10.68 -7 9.36 -7 8 C-6.01 8 -5.02 8 -4 8 C-3.67 5.69 -3.34 3.38 -3 1 C-2.67 1.66 -2.34 2.32 -2 3 C-1.34 3 -0.68 3 0 3 C0 2.01 0 1.02 0 0 Z " fill="#BF4951" transform="translate(335,348)"/>
<path d="M0 0 C0.66 0 1.32 0 2 0 C2.144375 0.928125 2.28875 1.85625 2.4375 2.8125 C2.92100111 6.00725111 2.92100111 6.00725111 4 9 C3.60024684 11.24476772 3.11034401 13.47421022 2.5625 15.6875 C2.27503906 16.86699219 1.98757812 18.04648438 1.69140625 19.26171875 C1.46324219 20.16535156 1.23507813 21.06898438 1 22 C0.34 22 -0.32 22 -1 22 C-2.04465074 19.09819239 -1.93340618 17.62707461 -1.375 14.5 C-0.63673483 11.05191853 -0.63673483 11.05191853 -2.4375 8.75 C-3.2109375 7.88375 -3.2109375 7.88375 -4 7 C-4 6.01 -4 5.02 -4 4 C-3.34 4 -2.68 4 -2 4 C-1.34 2.68 -0.68 1.36 0 0 Z " fill="#D85D48" transform="translate(244,122)"/>
<path d="M0 0 C0.66 0 1.32 0 2 0 C2.66 0.99 3.32 1.98 4 3 C4.99 2.67 5.98 2.34 7 2 C7 4.64 7 7.28 7 10 C7.78375 10.309375 8.5675 10.61875 9.375 10.9375 C12 12 12 12 14 13 C14.33333333 14.33333333 14.66666667 15.66666667 15 17 C15.66 17.33 16.32 17.66 17 18 C17.33 17.34 17.66 16.68 18 16 C18.66 17.65 19.32 19.3 20 21 C19.34 21.33 18.68 21.66 18 22 C16.87043002 21.23587913 15.74651022 20.46340197 14.625 19.6875 C13.99851563 19.25824219 13.37203125 18.82898438 12.7265625 18.38671875 C11 17 11 17 9 14 C7.7315625 13.566875 7.7315625 13.566875 6.4375 13.125 C5.633125 12.75375 4.82875 12.3825 4 12 C3.1875 9.375 3.1875 9.375 3 7 C2.34 7 1.68 7 1 7 C0.67 4.69 0.34 2.38 0 0 Z " fill="#D57E41" transform="translate(170,352)"/>
<path d="M0 0 C0.66 0 1.32 0 2 0 C1.98428955 0.62342285 1.9685791 1.2468457 1.95239258 1.88916016 C1.57697734 18.22801675 1.57697734 18.22801675 4.34375 34.2578125 C4.98779992 36.9490211 5.12107443 39.24555661 5 42 C-0.67027668 36.32972332 -1.23179462 26.90903949 -1.32568359 19.27880859 C-1.29328224 12.75653572 -1.06783303 6.44172449 0 0 Z " fill="#C25448" transform="translate(213,172)"/>
<path d="M0 0 C0.66 0.99 1.32 1.98 2 3 C0.79724696 7.32991096 -1.73452211 11.14868759 -4 15 C-5.32 15 -6.64 15 -8 15 C-8 15.99 -8 16.98 -8 18 C-8.66 18 -9.32 18 -10 18 C-9.6875 15.625 -9.6875 15.625 -9 13 C-8.01 12.34 -7.02 11.68 -6 11 C-6.33 9.02 -6.66 7.04 -7 5 C-5.35 4.34 -3.7 3.68 -2 3 C-2 2.34 -2 1.68 -2 1 C-1.34 0.67 -0.68 0.34 0 0 Z " fill="#CF2123" transform="translate(343,333)"/>
<path d="M0 0 C4.09266308 3.92623315 7.65900027 8.12679638 11.1875 12.5625 C11.98704102 13.5515332 11.98704102 13.5515332 12.80273438 14.56054688 C13.31513672 15.20185547 13.82753906 15.84316406 14.35546875 16.50390625 C14.81590576 17.07955322 15.27634277 17.6552002 15.75073242 18.24829102 C17.06286483 20.08814836 18.04246148 21.95637363 19 24 C16.6875 24.25 16.6875 24.25 14 24 C10.76038394 21.0003555 10.04520919 17.18083674 9 13 C7.35 12.67 5.7 12.34 4 12 C3.896875 11.46375 3.79375 10.9275 3.6875 10.375 C3.02237382 7.80923372 3.02237382 7.80923372 1.4375 4.875 C0 2 0 2 0 0 Z " fill="#E7B068" transform="translate(221,284)"/>
<path d="M0 0 C5.35852494 0.39208719 9.14168125 2.3357387 13 6 C13 6.66 13 7.32 13 8 C13.62648438 8.06058594 14.25296875 8.12117187 14.8984375 8.18359375 C15.71570313 8.26738281 16.53296875 8.35117188 17.375 8.4375 C18.18710937 8.51871094 18.99921875 8.59992188 19.8359375 8.68359375 C22 9 22 9 24 10 C24 11.98 24 13.96 24 16 C21 16 21 16 19 15 C19 14.34 19 13.68 19 13 C18.44183594 12.73960937 17.88367188 12.47921875 17.30859375 12.2109375 C11.10944285 8.95926782 5.36507794 4.47089828 0 0 Z " fill="#E44942" transform="translate(279,236)"/>
<path d="M0 0 C0.33 0 0.66 0 1 0 C4.4619229 9.60193711 5.28303921 18.85576755 6 29 C0.52308316 20.78462474 -1.07546423 10.73488626 -1 1 C-0.67 0.67 -0.34 0.34 0 0 Z " fill="#DFA860" transform="translate(145,301)"/>
<path d="M0 0 C0.66 0 1.32 0 2 0 C2.37203333 12.2150944 1.44222331 20.10043881 -6 30 C-6.33 29.01 -6.66 28.02 -7 27 C-6.67 26.34 -6.34 25.68 -6 25 C-5.34 25 -4.68 25 -4 25 C-3.95101562 24.16855469 -3.90203125 23.33710938 -3.8515625 22.48046875 C-3.77679688 21.39378906 -3.70203125 20.30710937 -3.625 19.1875 C-3.52058594 17.56908203 -3.52058594 17.56908203 -3.4140625 15.91796875 C-3 13 -3 13 -1 10 C-0.54398739 7.49103314 -0.54398739 7.49103314 -0.375 4.8125 C-0.30023438 3.91144531 -0.22546875 3.01039063 -0.1484375 2.08203125 C-0.09945313 1.39496094 -0.05046875 0.70789063 0 0 Z " fill="#D6965B" transform="translate(259,352)"/>
<path d="M0 0 C0.33 0.66 0.66 1.32 1 2 C1.66 2.33 2.32 2.66 3 3 C3.39044206 4.31774196 3.70955086 5.65667272 4 7 C4.5259375 8.4540625 4.5259375 8.4540625 5.0625 9.9375 C5.95060025 12.83862749 6.17670344 14.9960415 6 18 C6.66 18.33 7.32 18.66 8 19 C6.68 20.32 5.36 21.64 4 23 C1.68006154 15.71359134 -0.47536437 8.49612516 -2 1 C-1.34 0.67 -0.68 0.34 0 0 Z " fill="#E8B267" transform="translate(167,264)"/>
<path d="M0 0 C1.32 0 2.64 0 4 0 C4.24234375 0.97839844 4.4846875 1.95679688 4.734375 2.96484375 C6.44175632 9.69560201 8.16835953 16.10918751 11.265625 22.36328125 C12 24 12 24 12 26 C9 25 9 25 7.61328125 22.5234375 C3.3068194 12.09998929 3.3068194 12.09998929 4 6 C3.34 6 2.68 6 2 6 C2 5.34 2 4.68 2 4 C1.01 4.66 0.02 5.32 -1 6 C-1.99 6 -2.98 6 -4 6 C-3.34 4.68 -2.68 3.36 -2 2 C-1.34 2 -0.68 2 0 2 C0 1.34 0 0.68 0 0 Z " fill="#DB9588" transform="translate(291,163)"/>
<path d="M0 0 C1.875 0.3125 1.875 0.3125 4 1 C4.66 1.99 5.32 2.98 6 4 C7.32 3.67 8.64 3.34 10 3 C9.67 5.31 9.34 7.62 9 10 C9.7425 10.268125 10.485 10.53625 11.25 10.8125 C13.89061949 11.95276751 15.85552844 13.09380306 18 15 C18 15.66 18 16.32 18 17 C13.31456952 15.38938327 8.81552726 13.18393205 5 10 C3.75 6.75 3.75 6.75 3 4 C0.96756452 3.03122943 0.96756452 3.03122943 -1 3 C-0.67 2.01 -0.34 1.02 0 0 Z " fill="#E33D32" transform="translate(254,215)"/>
<path d="M0 0 C0.66 0 1.32 0 2 0 C2.40992188 1.09699219 2.81984375 2.19398438 3.2421875 3.32421875 C3.78642886 4.77865686 4.33070133 6.23308333 4.875 7.6875 C5.14441406 8.40873047 5.41382813 9.12996094 5.69140625 9.87304688 C7.08668603 13.59946483 8.50202917 17.31324655 10 21 C8.68 20.67 7.36 20.34 6 20 C6 20.66 6 21.32 6 22 C4.68 21.67 3.36 21.34 2 21 C2.515625 20.443125 3.03125 19.88625 3.5625 19.3125 C5.29476698 17.05914993 5.29476698 17.05914993 4.6875 14.25 C4.3471875 13.13625 4.3471875 13.13625 4 12 C3.01 11.67 2.02 11.34 1 11 C0.67 7.37 0.34 3.74 0 0 Z " fill="#DA695A" transform="translate(246,170)"/>
<path d="M0 0 C2 1.1875 2 1.1875 4 3 C4.25 5.6875 4.25 5.6875 4 8 C4.99 7.67 5.98 7.34 7 7 C7 8.65 7 10.3 7 12 C6.01 12.495 6.01 12.495 5 13 C5.04125 14.11375 5.0825 15.2275 5.125 16.375 C5 20 5 20 3 22 C2.67 18.04 2.34 14.08 2 10 C1.34 10 0.68 10 0 10 C-0.19412181 8.52168779 -0.38012131 7.04230684 -0.5625 5.5625 C-0.66691406 4.73878906 -0.77132813 3.91507812 -0.87890625 3.06640625 C-0.91886719 2.38449219 -0.95882813 1.70257813 -1 1 C-0.67 0.67 -0.34 0.34 0 0 Z " fill="#C5232A" transform="translate(288,344)"/>
<path d="M0 0 C3 1 3 1 4 3 C4.203125 4.875 4.203125 4.875 4.25 7 C4.27578125 7.70125 4.3015625 8.4025 4.328125 9.125 C4.21984375 9.74375 4.1115625 10.3625 4 11 C3.01 11.66 2.02 12.32 1 13 C0.34 12.67 -0.32 12.34 -1 12 C-1 11.34 -1 10.68 -1 10 C-1.66 10 -2.32 10 -3 10 C-2.25 3.375 -2.25 3.375 0 0 Z " fill="#EA1D23" transform="translate(349,284)"/>
<path d="M0 0 C1.20628008 2.33214148 2.1654738 4.49642139 3 7 C3.66 7 4.32 7 5 7 C5.33 6.01 5.66 5.02 6 4 C9.465 5.485 9.465 5.485 13 7 C12.67 8.32 12.34 9.64 12 11 C9.525 10.01 9.525 10.01 7 9 C4.65026182 10.89755144 4.65026182 10.89755144 4.875 14.125 C4.936875 15.548125 4.936875 15.548125 5 17 C4.34 17 3.68 17 3 17 C2.49255577 15.10614563 1.99435426 13.20981334 1.5 11.3125 C1.2215625 10.25675781 0.943125 9.20101562 0.65625 8.11328125 C0.0608285 5.28857328 -0.12786492 2.87163292 0 0 Z " fill="#F17155" transform="translate(290,182)"/>
<path d="M0 0 C0.86882812 -0.00515625 1.73765625 -0.0103125 2.6328125 -0.015625 C4.875 0.25 4.875 0.25 6.875 2.25 C2.255 2.58 -2.365 2.91 -7.125 3.25 C-7.125 4.24 -7.125 5.23 -7.125 6.25 C-8.445 6.25 -9.765 6.25 -11.125 6.25 C-12.31181726 9.81045177 -12.22189832 12.68808337 -12.1875 16.4375 C-12.17847656 17.70980469 -12.16945313 18.98210937 -12.16015625 20.29296875 C-12.14855469 21.26878906 -12.13695312 22.24460937 -12.125 23.25 C-15.24242133 18.573868 -14.84049289 13.7209911 -14.125 8.25 C-11.27671766 2.29243734 -6.33931618 -0.03784666 0 0 Z " fill="#CA3332" transform="translate(283.125,287.75)"/>
<path d="M0 0 C2.49310643 3.73965964 2.0603261 5.29070641 1.625 9.6875 C1.45871094 11.45673828 1.45871094 11.45673828 1.2890625 13.26171875 C1.14597656 14.61716797 1.14597656 14.61716797 1 16 C-5.06867284 17.31404321 -5.06867284 17.31404321 -8 16 C-9.25 13.9375 -9.25 13.9375 -10 12 C-7.33333333 12 -4.66666667 12 -2 12 C-1.33119785 9.15759088 -1 6.6838071 -1 3.75 C-1 1 -1 1 0 0 Z " fill="#E6332C" transform="translate(300,228)"/>
<path d="M0 0 C0.33 0 0.66 0 1 0 C0.85950482 1.47968324 0.71245174 2.95874516 0.5625 4.4375 C0.48128906 5.26121094 0.40007812 6.08492188 0.31640625 6.93359375 C0 9 0 9 -1 10 C-1.75333604 13.43992779 -1.75333604 13.43992779 -2 17 C-1.34 17.66 -0.68 18.32 0 19 C-1.98 19.99 -1.98 19.99 -4 21 C-4.05418326 18.91695462 -4.09287551 16.83350232 -4.125 14.75 C-4.14820313 13.58984375 -4.17140625 12.4296875 -4.1953125 11.234375 C-4.0103949 8.17213954 -3.60823023 6.55797249 -2 4 C-1.34 4 -0.68 4 0 4 C0 2.68 0 1.36 0 0 Z M-8 10 C-6.68 10 -5.36 10 -4 10 C-4.33 11.65 -4.66 13.3 -5 15 C-6.32 14.67 -7.64 14.34 -9 14 C-8.67 12.68 -8.34 11.36 -8 10 Z " fill="#D11D28" transform="translate(337,282)"/>
<path d="M0 0 C1.50934217 3.01868434 1.17510672 5.67297229 1 9 C0.01 10.485 0.01 10.485 -1 12 C-5.61702128 9.76595745 -5.61702128 9.76595745 -7 7 C-4 0 -4 0 0 0 Z " fill="#EBB562" transform="translate(191,181)"/>
<path d="M0 0 C0.33 1.32 0.66 2.64 1 4 C1.66 4 2.32 4 3 4 C4.75747614 8.50353262 5.19294408 12.17639811 5 17 C4.67 16.34 4.34 15.68 4 15 C3.34 14.690625 2.68 14.38125 2 14.0625 C0 13 0 13 -1 10 C-1.09182942 8.46050671 -1.13002352 6.91722145 -1.125 5.375 C-1.12757813 4.57835937 -1.13015625 3.78171875 -1.1328125 2.9609375 C-1 1 -1 1 0 0 Z " fill="#CF3131" transform="translate(239,226)"/>
<path d="M0 0 C2.125 0 2.125 0 5 1 C7.25484692 3.49775783 9.14265083 6.19801963 11 9 C10.67 9.66 10.34 10.32 10 11 C9.01 11 8.02 11 7 11 C7 10.01 7 9.02 7 8 C4.69 8 2.38 8 0 8 C0.2784375 7.13375 0.2784375 7.13375 0.5625 6.25 C1.04023546 3.79307475 0.75729364 2.35602466 0 0 Z " fill="#D88373" transform="translate(313,208)"/>
<path d="M0 0 C0.33 0 0.66 0 1 0 C2.73752412 11.63520615 3.50901307 22.30514873 2 34 C1.67 34 1.34 34 1 34 C0.67 27.07 0.34 20.14 0 13 C-0.33 13 -0.66 13 -1 13 C-0.67 8.71 -0.34 4.42 0 0 Z " fill="#E58D99" transform="translate(354,268)"/>
<path d="M0 0 C5.85272256 0.45020943 10.08220119 3.03839227 15 6 C11.93109813 7.53445094 9.29905734 6.54984289 6 6 C6 5.34 6 4.68 6 4 C5.34 4 4.68 4 4 4 C3.67 5.32 3.34 6.64 3 8 C0.37613513 4.93882432 0 4.26826873 0 0 Z " fill="#EBCEC9" transform="translate(272,263)"/>
<path d="M0 0 C0.99 0.495 0.99 0.495 2 1 C2 1.66 2 2.32 2 3 C3.65 2.67 5.3 2.34 7 2 C7 7.61 7 13.22 7 19 C5.24538017 15.49076033 3.7861391 12.03075803 2.375 8.375 C1.92898438 7.22773438 1.48296875 6.08046875 1.0234375 4.8984375 C0 2 0 2 0 0 Z " fill="#D04144" transform="translate(281,334)"/>
<path d="M0 0 C0.66 0.33 1.32 0.66 2 1 C2 3.66666667 2 6.33333333 2 9 C3.41666667 10.58333333 3.41666667 10.58333333 5 12 C6.33332095 14.6666419 5.67102033 16.16680303 5 19 C2.9754262 17.06745228 1.57894208 15.36841312 0 13 C-0.33 13 -0.66 13 -1 13 C-1.22151549 11.20991533 -1.42682213 9.41781838 -1.625 7.625 C-1.74101562 6.62726563 -1.85703125 5.62953125 -1.9765625 4.6015625 C-1.98429688 3.74304688 -1.99203125 2.88453125 -2 2 C-1.34 1.34 -0.68 0.68 0 0 Z " fill="#E83C31" transform="translate(221,205)"/>
<path d="M0 0 C0.99 0.33 1.98 0.66 3 1 C4.38671875 3.87109375 4.38671875 3.87109375 5.6875 7.4375 C6.12449219 8.61183594 6.56148437 9.78617187 7.01171875 10.99609375 C8 14 8 14 8 16 C5 15 5 15 3.8125 13.1875 C3 11 3 11 3 7 C2.34 7 1.68 7 1 7 C0.67 8.32 0.34 9.64 0 11 C0 7.37 0 3.74 0 0 Z " fill="#E19E4B" transform="translate(145,281)"/>
<path d="M0 0 C1.98 0.66 3.96 1.32 6 2 C5.67 2.99 5.34 3.98 5 5 C5.99 5 6.98 5 8 5 C8.12375 5.61875 8.2475 6.2375 8.375 6.875 C8.87197356 9.19120832 8.87197356 9.19120832 11 11 C11.26991906 13.68839385 11.08737357 16.29141936 11 19 C8.89245271 16.89245271 8.27860833 15.48009234 7.1875 12.75 C5.34916899 8.44206206 3.07273544 5.49950425 0 2 C0 1.34 0 0.68 0 0 Z " fill="#E87876" transform="translate(302,253)"/>
<path d="M0 0 C5.02265357 1.18180084 8.0949151 2.44992282 12 6 C11 9 11 9 10 10 C8.33382885 10.04063832 6.66611905 10.042721 5 10 C5 8 5 8 7 6 C4.69 5.01 2.38 4.02 0 3 C0 2.01 0 1.02 0 0 Z " fill="#EABFAF" transform="translate(283,269)"/>
<path d="M0 0 C1.98 0 3.96 0 6 0 C6 0.66 6 1.32 6 2 C5.360625 2.61875 4.72125 3.2375 4.0625 3.875 C1.84768518 5.77605605 1.84768518 5.77605605 1.5625 8.125 C1.376875 8.74375 1.19125 9.3625 1 10 C-1.5625 11.25 -1.5625 11.25 -4 12 C-4 8.76344816 -3.3449153 7.21247361 -2 4.3125 C-1.62875 3.50425781 -1.2575 2.69601563 -0.875 1.86328125 C-0.58625 1.24839844 -0.2975 0.63351563 0 0 Z " fill="#E15E4C" transform="translate(230,133)"/>
<path d="M0 0 C0.66 0 1.32 0 2 0 C2 7.92 2 15.84 2 24 C1.34 24 0.68 24 0 24 C-0.12375 24.969375 -0.2475 25.93875 -0.375 26.9375 C-0.58125 27.948125 -0.7875 28.95875 -1 30 C-1.66 30.33 -2.32 30.66 -3 31 C-2.67515625 29.90558594 -2.67515625 29.90558594 -2.34375 28.7890625 C0.24624255 19.07659046 0.30268925 9.98874537 0 0 Z " fill="#D07C82" transform="translate(288,354)"/>
<path d="M0 0 C2.97 0.495 2.97 0.495 6 1 C6.33 2.65 6.66 4.3 7 6 C8.32 6.33 9.64 6.66 11 7 C11.66 9.31 12.32 11.62 13 14 C12.34 14 11.68 14 11 14 C9.62517548 12.47047124 8.32334103 10.87477094 7.0625 9.25 C6.37285156 8.36828125 5.68320312 7.4865625 4.97265625 6.578125 C3.30206725 4.39478097 1.64287942 2.20423948 0 0 Z " fill="#E9CCC3" transform="translate(252,291)"/>
<path d="M0 0 C0.61875 0.804375 1.2375 1.60875 1.875 2.4375 C3.74164041 5.03874519 3.74164041 5.03874519 6 6 C6 6.99 6 7.98 6 9 C6.99 9.33 7.98 9.66 9 10 C10.4783226 12.95664519 10.06032783 15.74229737 10 19 C7.62313751 15.98266558 5.71677067 12.86886696 3.875 9.5 C3.35679687 8.5615625 2.83859375 7.623125 2.3046875 6.65625 C1.19176589 4.39042158 0.47633009 2.46297513 0 0 Z " fill="#D87271" transform="translate(271,315)"/>
<path d="M0 0 C4.83256305 0.41421969 6.82679218 2.46413986 10 6 C9.67 6.66 9.34 7.32 9 8 C7.35 7.01 5.7 6.02 4 5 C3.67 6.65 3.34 8.3 3 10 C1.11608215 6.73454239 0.50712033 3.71888239 0 0 Z " fill="#C77678" transform="translate(292,259)"/>
<path d="M0 0 C1.80411967 2.75924185 2.0127245 3.88972103 1.625 7.25 C1.41875 8.1575 1.2125 9.065 1 10 C0.34 10 -0.32 10 -1 10 C-1.33 11.65 -1.66 13.3 -2 15 C-2.33 15 -2.66 15 -3 15 C-3.33 10.38 -3.66 5.76 -4 1 C-2.68 1.33 -1.36 1.66 0 2 C0 1.34 0 0.68 0 0 Z " fill="#E44B4A" transform="translate(317,267)"/>
<path d="M0 0 C0.66 0 1.32 0 2 0 C3.10844919 3.32534757 2.84454356 5.62182575 2 9 C0.68 9.33 -0.64 9.66 -2 10 C-4 7 -4 7 -4 4 C-3.34 4 -2.68 4 -2 4 C-1.34 2.68 -0.68 1.36 0 0 Z " fill="#F06446" transform="translate(244,122)"/>
<path d="M0 0 C3.02093215 3.02093215 2.46676834 6.56372072 2.625 10.625 C2.66367188 11.42679687 2.70234375 12.22859375 2.7421875 13.0546875 C2.83653931 15.03607556 2.91936215 17.01800645 3 19 C0.984375 17.296875 0.984375 17.296875 -1 15 C-1.171875 12.640625 -1.171875 12.640625 -0.75 10.25 C-0.62109375 9.45078125 -0.4921875 8.6515625 -0.359375 7.828125 C-0.24078125 7.22484375 -0.1221875 6.6215625 0 6 C-0.99 6.495 -0.99 6.495 -2 7 C-2.125 4.625 -2.125 4.625 -2 2 C-1.34 1.34 -0.68 0.68 0 0 Z " fill="#E0C193" transform="translate(146,266)"/>
<path d="M0 0 C0.33 0 0.66 0 1 0 C2.32 5.94 3.64 11.88 5 18 C1 16 1 16 -0.2734375 13.73828125 C-1.09624824 10.63725798 -1.00763857 8.36340015 -0.625 5.1875 C-0.51414063 4.21167969 -0.40328125 3.23585937 -0.2890625 2.23046875 C-0.19367188 1.49441406 -0.09828125 0.75835937 0 0 Z " fill="#E9BA6C" transform="translate(190,224)"/>
<path d="M0 0 C0.99 0.33 1.98 0.66 3 1 C4.1875 4.0625 4.1875 4.0625 5 7 C5.66 7 6.32 7 7 7 C7 7.99 7 8.98 7 10 C7.66 10.33 8.32 10.66 9 11 C9 11.66 9 12.32 9 13 C8.34 13 7.68 13 7 13 C3 8.52941176 3 8.52941176 3 6 C1.68 5.34 0.36 4.68 -1 4 C-0.67 2.68 -0.34 1.36 0 0 Z " fill="#D59E6E" transform="translate(166,352)"/>
<path d="M0 0 C1.32 0 2.64 0 4 0 C4.66 1.98 5.32 3.96 6 6 C2.18510326 7.46726798 -0.29011622 6.43336419 -4 5 C-2.25 2.5 -2.25 2.5 0 0 Z " fill="#F9B79F" transform="translate(297,284)"/>
<path d="M0 0 C3.63 0 7.26 0 11 0 C10.67 1.98 10.34 3.96 10 6 C8.5164999 5.57742724 7.03823576 5.13643678 5.5625 4.6875 C4.73878906 4.44386719 3.91507812 4.20023438 3.06640625 3.94921875 C2.04353516 3.47935547 2.04353516 3.47935547 1 3 C0.67 2.01 0.34 1.02 0 0 Z " fill="#E63531" transform="translate(277,232)"/>
<path d="M0 0 C2 1 2 1 3.125 4.0625 C3.41375 5.031875 3.7025 6.00125 4 7 C5.32 6.67 6.64 6.34 8 6 C7.33333333 8.66666667 6.66666667 11.33333333 6 14 C4.79719839 12.42825925 3.61318725 10.84212442 2.4375 9.25 C1.77621094 8.36828125 1.11492187 7.4865625 0.43359375 6.578125 C-1 4 -1 4 -0.71484375 1.671875 C-0.47894531 1.12015625 -0.24304688 0.5684375 0 0 Z " fill="#D5625D" transform="translate(221,217)"/>
<path d="M0 0 C0.99 0.33 1.98 0.66 3 1 C2.27275406 6.52706913 0.66554027 11.69960141 -1 17 C-1.66 16.01 -2.32 15.02 -3 14 C-2.37212429 11.65593068 -1.70491267 9.32206525 -1 7 C-1.33 6.01 -1.66 5.02 -2 4 C-1.34 4 -0.68 4 0 4 C0 3.34 0 2.68 0 2 C-0.66 1.67 -1.32 1.34 -2 1 C-1.34 0.67 -0.68 0.34 0 0 Z " fill="#D61F28" transform="translate(346,319)"/>
<path d="M0 0 C0 0.66 0 1.32 0 2 C-1.06541016 2.30744141 -1.06541016 2.30744141 -2.15234375 2.62109375 C-3.53099609 3.02521484 -3.53099609 3.02521484 -4.9375 3.4375 C-6.31228516 3.83775391 -6.31228516 3.83775391 -7.71484375 4.24609375 C-9.9402493 4.79026051 -9.9402493 4.79026051 -11 6 C-12.66617115 6.04063832 -14.33388095 6.042721 -16 6 C-14.68 5.67 -13.36 5.34 -12 5 C-12 3.68 -12 2.36 -12 1 C-7.9472484 0.01751476 -4.16138263 -0.08159574 0 0 Z " fill="#B7252E" transform="translate(304,379)"/>
<path d="M0 0 C0 0.66 0 1.32 0 2 C-1.32 2 -2.64 2 -4 2 C-4 2.66 -4 3.32 -4 4 C-5.65 4 -7.3 4 -9 4 C-9 5.32 -9 6.64 -9 8 C-9.99 8 -10.98 8 -12 8 C-11.65447612 5.44312331 -11.24912987 3.42498625 -9.9375 1.1875 C-6.75444301 -0.7634059 -3.67569327 -0.1807718 0 0 Z " fill="#C51E22" transform="translate(301,376)"/>
<path d="M0 0 C0.33 0 0.66 0 1 0 C0.67 3.3 0.34 6.6 0 10 C1.32 8.02 2.64 6.04 4 4 C5 6 5 6 4.0625 9.125 C3.711875 10.07375 3.36125 11.0225 3 12 C1.35 12 -0.3 12 -2 12 C-2.17835515 7.45194365 -1.99785435 4.1205746 0 0 Z " fill="#DA6871" transform="translate(337,287)"/>
<path d="M0 0 C3.90829085 0.5647301 5.89920223 2.42131971 8.75 5.0625 C9.54921875 5.79597656 10.3484375 6.52945312 11.171875 7.28515625 C11.77515625 7.85105469 12.3784375 8.41695313 13 9 C12.67 9.99 12.34 10.98 12 12 C7.47384007 8.32167983 3.60575001 4.58913637 0 0 Z " fill="#EDD5CA" transform="translate(240,278)"/>
<path d="M0 0 C2.475 0.495 2.475 0.495 5 1 C5.33 1.99 5.66 2.98 6 4 C6.9590625 4.4640625 6.9590625 4.4640625 7.9375 4.9375 C10.45468915 6.2342338 10.96886948 7.4221737 12 10 C6.74308545 8.56629603 3.48214849 5.00396901 0 1 C0 0.67 0 0.34 0 0 Z " fill="#DDAA74" transform="translate(175,365)"/>
<path d="M0 0 C0.66 0 1.32 0 2 0 C2.66 0.99 3.32 1.98 4 3 C4.99 2.67 5.98 2.34 7 2 C6.67 4.31 6.34 6.62 6 9 C3.525 8.01 3.525 8.01 1 7 C0.67 4.69 0.34 2.38 0 0 Z " fill="#E48334" transform="translate(170,352)"/>
<path d="M0 0 C2.67074905 1.10123371 5.24344428 1.98172554 8.0625 2.625 C7.7325 3.945 7.4025 5.265 7.0625 6.625 C5.29019249 5.8366391 3.51970466 5.04418653 1.75 4.25 C0.76386719 3.80914062 -0.22226562 3.36828125 -1.23828125 2.9140625 C-3.9375 1.625 -3.9375 1.625 -6.9375 -0.375 C-3.57106045 -1.49714652 -3.10837872 -1.3006268 0 0 Z " fill="#FA9E8B" transform="translate(294.9375,288.375)"/>
<path d="M0 0 C5.35852494 0.39208719 9.14168125 2.3357387 13 6 C13 6.66 13 7.32 13 8 C13.66 8 14.32 8 15 8 C14.67 8.66 14.34 9.32 14 10 C11.66390677 8.52504318 9.33109833 7.04531255 7 5.5625 C6.33226562 5.14162109 5.66453125 4.72074219 4.9765625 4.28710938 C3.30037435 3.21811183 1.64799163 2.11197395 0 1 C0 0.67 0 0.34 0 0 Z " fill="#D86866" transform="translate(279,236)"/>
<path d="M0 0 C0.66 0.33 1.32 0.66 2 1 C2 4.60573896 1.18292538 5.41336566 -1 8.1875 C-1.556875 8.90292969 -2.11375 9.61835938 -2.6875 10.35546875 C-3.120625 10.89816406 -3.55375 11.44085938 -4 12 C-4.84961471 8.88690793 -5.24135679 7.05564747 -4 4 C-1.9375 1.75 -1.9375 1.75 0 0 Z " fill="#F2B559" transform="translate(182,190)"/>
<path d="M0 0 C7.25 0 7.25 0 11 2 C10.67 3.65 10.34 5.3 10 7 C10.66 7.33 11.32 7.66 12 8 C9 8 9 8 7.125 6.25 C6.42375 5.5075 5.7225 4.765 5 4 C3.34808509 2.64843325 1.68477344 1.31037934 0 0 Z " fill="#E33933" transform="translate(263,224)"/>
<path d="M0 0 C2 2 2 2 2.125 5.125 C2.08375 6.07375 2.0425 7.0225 2 8 C0.55989519 7.74337755 -0.8770687 7.46909179 -2.3125 7.1875 C-3.11300781 7.03667969 -3.91351563 6.88585937 -4.73828125 6.73046875 C-7 6 -7 6 -10 3 C-6.7 3.33 -3.4 3.66 0 4 C0 2.68 0 1.36 0 0 Z " fill="#DFBCB3" transform="translate(278,271)"/>
<path d="M0 0 C0.33 0 0.66 0 1 0 C1.50643553 2.22771342 2.0048962 4.45724076 2.5 6.6875 C2.7784375 7.92886719 3.056875 9.17023438 3.34375 10.44921875 C3.89354126 13.42398218 4.13795705 15.99368602 4 19 C0.91615731 15.91615731 -0.09108903 12.21707958 -1 8 C-0.96288779 5.18411073 -0.55584426 2.77922131 0 0 Z " fill="#CF635B" transform="translate(214,195)"/>
<path d="M0 0 C1.33332095 2.6666419 0.67102033 4.16680303 0 7 C-0.99 7 -1.98 7 -3 7 C-4.33981486 7.3062434 -5.67511887 7.63451555 -7 8 C-6.3125 5.125 -6.3125 5.125 -5 2 C-2.375 0.625 -2.375 0.625 0 0 Z " fill="#DD7060" transform="translate(290,168)"/>
<path d="M0 0 C0.33 0 0.66 0 1 0 C0.75673529 7.66283829 -1.33741003 11.96857627 -6 18 C-6.33 17.01 -6.66 16.02 -7 15 C-6.67 14.34 -6.34 13.68 -6 13 C-5.34 13 -4.68 13 -4 13 C-3.67 11.35 -3.34 9.7 -3 8 C-2.34 8 -1.68 8 -1 8 C-0.67 5.36 -0.34 2.72 0 0 Z " fill="#DCA978" transform="translate(259,364)"/>
<path d="M0 0 C1.32 0 2.64 0 4 0 C4 1.98 4 3.96 4 6 C3.34 6 2.68 6 2 6 C2 5.34 2 4.68 2 4 C1.01 4.66 0.02 5.32 -1 6 C-1.99 6 -2.98 6 -4 6 C-3.34 4.68 -2.68 3.36 -2 2 C-1.34 2 -0.68 2 0 2 C0 1.34 0 0.68 0 0 Z " fill="#D08E86" transform="translate(291,163)"/>
<path d="M0 0 C0.66 0 1.32 0 2 0 C4.05773809 2.96314285 5.13524935 5.54099741 6 9 C6.66 9.33 7.32 9.66 8 10 C8 11.65 8 13.3 8 15 C4.97059382 13.48529691 4.35039454 11.0596179 2.875 8.0625 C2.33617187 6.98097656 1.79734375 5.89945312 1.2421875 4.78515625 C0 2 0 2 0 0 Z " fill="#DFAD79" transform="translate(151,330)"/>
<path d="M0 0 C0 0.33 0 0.66 0 1 C-0.60585938 1.04898437 -1.21171875 1.09796875 -1.8359375 1.1484375 C-7.99760464 1.6982478 -13.95885951 2.67609049 -20 4 C-20 3.01 -20 2.02 -20 1 C-13.34362157 -0.23839599 -6.7528064 -0.09139136 0 0 Z " fill="#F9B4A2" transform="translate(288,287)"/>
<path d="M0 0 C5.35852494 0.39208719 9.14168125 2.3357387 13 6 C13 6.66 13 7.32 13 8 C8.27626146 6.37621488 4.05818166 3.89006982 0 1 C0 0.67 0 0.34 0 0 Z " fill="#D76E6D" transform="translate(259,224)"/>
<path d="M0 0 C3.39417765 3.12621626 5.6062718 5.56541027 7 10 C5.35 10 3.7 10 2 10 C1.34 6.7 0.68 3.4 0 0 Z " fill="#DB8C7F" transform="translate(309,198)"/>
<path d="M0 0 C0.66 0.99 1.32 1.98 2 3 C0.93935204 6.6640566 -0.91139798 9.82169259 -3 13 C-3.33 13 -3.66 13 -4 13 C-3.67 10.36 -3.34 7.72 -3 5 C-2.01 5 -1.02 5 0 5 C0 3.35 0 1.7 0 0 Z " fill="#CC565D" transform="translate(343,333)"/>
<path d="M0 0 C6.57142857 4 6.57142857 4 8 8 C5.6875 8.25 5.6875 8.25 3 8 C1.1875 6.25 1.1875 6.25 0 4 C0 2.68 0 1.36 0 0 Z " fill="#E2AB59" transform="translate(232,300)"/>
<path d="M0 0 C2 0 2 0 3.5 1.25 C5.06433504 3.07505754 5.95754433 4.84559162 7 7 C7.66 7.66 8.32 8.32 9 9 C9 9.66 9 10.32 9 11 C8.01 11 7.02 11 6 11 C6 10.01 6 9.02 6 8 C5.01 7.67 4.02 7.34 3 7 C0 2.66666667 0 2.66666667 0 0 Z " fill="#C52A30" transform="translate(271,313)"/>
<path d="M0 0 C2.4375 0.6875 2.4375 0.6875 5 2 C5.875 4.5 5.875 4.5 6 7 C5.67 7.66 5.34 8.32 5 9 C4.34 9 3.68 9 3 9 C2.67 7.35 2.34 5.7 2 4 C1.34 4 0.68 4 0 4 C-0.33 3.01 -0.66 2.02 -1 1 C-0.67 0.67 -0.34 0.34 0 0 Z " fill="#EFB7A2" transform="translate(303,290)"/>
<path d="M0 0 C0.33 0 0.66 0 1 0 C1.25 5.625 1.25 5.625 -1 9 C-1.66 9 -2.32 9 -3 9 C-3.33 9.99 -3.66 10.98 -4 12 C-5 10 -5 10 -4.0625 6.875 C-3.711875 5.92625 -3.36125 4.9775 -3 4 C-2.34 4 -1.68 4 -1 4 C-0.67 2.68 -0.34 1.36 0 0 Z " fill="#D0525E" transform="translate(346,283)"/>
<path d="M0 0 C3.29078593 2.79716804 5.06305458 6.19528578 7 10 C6.67 10.66 6.34 11.32 6 12 C2.59156258 9.11593757 1.13408616 7.6291735 0.1875 3.1875 C0.125625 2.135625 0.06375 1.08375 0 0 Z " fill="#D27E73" transform="translate(324,219)"/>
<path d="M0 0 C2 3.75 2 3.75 2 6 C2.61875 6.061875 3.2375 6.12375 3.875 6.1875 C6 7 6 7 7.25 9.5625 C7.4975 10.366875 7.745 11.17125 8 12 C5.0315035 10.62176948 2.36439249 9.28286171 0 7 C-0.8125 3.875 -0.8125 3.875 -1 1 C-0.67 0.67 -0.34 0.34 0 0 Z " fill="#DD5F5B" transform="translate(251,212)"/>
<path d="M0 0 C1.36959468 3.11271517 0.90994332 4.25666155 -0.25 7.5625 C-1.72532525 10.46046031 -2.70555087 11.87956808 -5 14 C-4.03603575 8.79459302 -3.12319499 4.40086567 0 0 Z " fill="#E2BB7C" transform="translate(172,204)"/>
<path d="M0 0 C0.33 0.66 0.66 1.32 1 2 C-0.46615298 5.77010767 -2.13404221 9.41161963 -4 13 C-4.99 13 -5.98 13 -7 13 C-5.87913866 9.12009535 -4.96723147 6.71996219 -2 4 C-0.82425289 1.90010348 -0.82425289 1.90010348 0 0 Z " fill="#DA8780" transform="translate(229,133)"/>
<path d="M0 0 C2.97246802 2.54782974 4.41535288 5.45340883 6 9 C6 9.66 6 10.32 6 11 C5.34 11 4.68 11 4 11 C4.33 11.99 4.66 12.98 5 14 C4.34 14 3.68 14 3 14 C0.88838269 4.58997722 0.88838269 4.58997722 0 0 Z " fill="#E0AC67" transform="translate(249,322)"/>
<path d="M0 0 C2.5 1.375 2.5 1.375 5 3 C5 3.66 5 4.32 5 5 C5.66 5 6.32 5 7 5 C7.66 6.65 8.32 8.3 9 10 C8.01 10.495 8.01 10.495 7 11 C3.11054606 9.05527303 1.32869027 3.98607082 0 0 Z " fill="#E3AB60" transform="translate(212,274)"/>
<path d="M0 0 C5.28 0 10.56 0 16 0 C16 0.66 16 1.32 16 2 C14.35 1.67 12.7 1.34 11 1 C11 1.66 11 2.32 11 3 C7.37 2.34 3.74 1.68 0 1 C0 0.67 0 0.34 0 0 Z " fill="#EED3CF" transform="translate(236,270)"/>
<path d="M0 0 C0.33 0 0.66 0 1 0 C1.33 6.27 1.66 12.54 2 19 C1.01 18.34 0.02 17.68 -1 17 C-1.0562279 14.03471821 -0.95683804 11.31149974 -0.6875 8.375 C-0.62626953 7.57320312 -0.56503906 6.77140625 -0.50195312 5.9453125 C-0.34851492 3.96241876 -0.17604307 1.98101481 0 0 Z " fill="#E28178" transform="translate(282,179)"/>
<path d="M0 0 C2.625 0.375 2.625 0.375 5 1 C5.66 2.98 6.32 4.96 7 7 C3.54074837 5.7508258 0.85306797 4.32472205 -2 2 C-1.34 1.34 -0.68 0.68 0 0 Z " fill="#DB9A5D" transform="translate(196,378)"/>
<path d="M0 0 C3 3 3 3 3.1875 5.6875 C3.0946875 6.8321875 3.0946875 6.8321875 3 8 C3.66 8.33 4.32 8.66 5 9 C3.68 10.32 2.36 11.64 1 13 C0.67 8.71 0.34 4.42 0 0 Z " fill="#E8A755" transform="translate(170,274)"/>
<path d="M0 0 C0 0.99 0 1.98 0 3 C1.32 3 2.64 3 4 3 C4 3.66 4 4.32 4 5 C2.68 5 1.36 5 0 5 C0 5.66 0 6.32 0 7 C-1.98 7 -3.96 7 -6 7 C-4.02 4.69 -2.04 2.38 0 0 Z " fill="#E58979" transform="translate(246,114)"/>
<path d="M0 0 C2.5 2.3125 2.5 2.3125 5 5 C5 5.99 5 6.98 5 8 C4.01 8.66 3.02 9.32 2 10 C1.67 9.34 1.34 8.68 1 8 C1.66 8 2.32 8 3 8 C2.505 7.608125 2.01 7.21625 1.5 6.8125 C-0.45593143 4.44908285 -0.24207973 2.98564997 0 0 Z " fill="#E7B16A" transform="translate(240,309)"/>
<path d="M0 0 C2 2 2 2 3 5 C3.99 5 4.98 5 6 5 C5.67 7.64 5.34 10.28 5 13 C4.67 13 4.34 13 4 13 C3.896875 12.236875 3.79375 11.47375 3.6875 10.6875 C3.24406015 7.97045327 3.24406015 7.97045327 1.4375 6.5 C0 5 0 5 -0.1875 2.3125 C-0.125625 1.549375 -0.06375 0.78625 0 0 Z " fill="#DC5053" transform="translate(308,304)"/>
<path d="M0 0 C0.33 0 0.66 0 1 0 C1.66 4.62 2.32 9.24 3 14 C1.33333333 14 -0.33333333 14 -2 14 C-1.34 9.38 -0.68 4.76 0 0 Z " fill="#E2A769" transform="translate(172,287)"/>
<path d="M0 0 C0.66 0 1.32 0 2 0 C2 0.66 2 1.32 2 2 C2.99 2.33 3.98 2.66 5 3 C5 5.64 5 8.28 5 11 C4.67 11 4.34 11 4 11 C3.67 9.35 3.34 7.7 3 6 C2.01 6.495 2.01 6.495 1 7 C0.67 4.69 0.34 2.38 0 0 Z " fill="#EEC1B7" transform="translate(276,267)"/>
<path d="M0 0 C2.49310643 3.73965964 2.0603261 5.29070641 1.625 9.6875 C1.51414062 10.86699219 1.40328125 12.04648438 1.2890625 13.26171875 C1.19367188 14.16535156 1.09828125 15.06898438 1 16 C0.67 16 0.34 16 0 16 C-1.24840764 5.96815287 -1.24840764 5.96815287 -1 1 C-0.67 0.67 -0.34 0.34 0 0 Z " fill="#EA3F2F" transform="translate(300,228)"/>
<path d="M0 0 C0.66 0 1.32 0 2 0 C1.25 5.75 1.25 5.75 -1 8 C-1 6.68 -1 5.36 -1 4 C-2.65 4.66 -4.3 5.32 -6 6 C-4 4 -2 2 0 0 Z " fill="#D0A29B" transform="translate(253,108)"/>
<path d="M0 0 C1.32 0 2.64 0 4 0 C4 0.66 4 1.32 4 2 C2.03125 3.5078125 2.03125 3.5078125 -0.5 5.125 C-1.3353125 5.66382813 -2.170625 6.20265625 -3.03125 6.7578125 C-3.6809375 7.16773438 -4.330625 7.57765625 -5 8 C-5.66 7.01 -6.32 6.02 -7 5 C-5.68 5 -4.36 5 -3 5 C-3 4.34 -3 3.68 -3 3 C-2.01 3 -1.02 3 0 3 C0 2.01 0 1.02 0 0 Z " fill="#BE5D67" transform="translate(310,373)"/>
<path d="M0 0 C2 3 2 3 2 6 C1.01 6 0.02 6 -1 6 C-1 7.32 -1 8.64 -1 10 C-1.66 10 -2.32 10 -3 10 C-3.6875 8.1875 -3.6875 8.1875 -4 6 C-2.625 4.4375 -2.625 4.4375 -1 3 C-0.67 2.01 -0.34 1.02 0 0 Z " fill="#C71F27" transform="translate(329,350)"/>
<path d="M0 0 C1.13732426 3.40401948 0.83989957 5.77456664 0.0625 9.25 C-0.13214844 10.14203125 -0.32679688 11.0340625 -0.52734375 11.953125 C-0.68332031 12.62859375 -0.83929688 13.3040625 -1 14 C-1.33 14 -1.66 14 -2 14 C-2 9.71 -2 5.42 -2 1 C-1.34 0.67 -0.68 0.34 0 0 Z " fill="#E21E26" transform="translate(319,293)"/>
<path d="M0 0 C1.32 0.33 2.64 0.66 4 1 C3.0409375 1.9590625 3.0409375 1.9590625 2.0625 2.9375 C-0.61912635 6.91930882 -0.79498004 10.294792 -1 15 C-1.33 15 -1.66 15 -2 15 C-2.3690205 4.44191344 -2.3690205 4.44191344 0 0 Z " fill="#F59A8F" transform="translate(270,290)"/>
<path d="M0 0 C3.41794232 4.55725642 3.2800783 5.36292453 2.6875 10.75 C2.56761719 11.92046875 2.44773437 13.0909375 2.32421875 14.296875 C2.21722656 15.18890625 2.11023438 16.0809375 2 17 C1.67 17 1.34 17 1 17 C0.67 11.39 0.34 5.78 0 0 Z " fill="#DE8F44" transform="translate(257,345)"/>
<path d="M0 0 C1.18771723 3.42943519 0.80226223 5.37784675 -0.4375 8.75 C-0.86869141 9.94882812 -0.86869141 9.94882812 -1.30859375 11.171875 C-1.65083984 12.07679688 -1.65083984 12.07679688 -2 13 C-2.33 13 -2.66 13 -3 13 C-3.27429625 7.60550707 -3.36055646 4.48074195 0 0 Z " fill="#D26267" transform="translate(353,310)"/>
<path d="M0 0 C0.33 0 0.66 0 1 0 C1.3125 2.8125 1.3125 2.8125 1 6 C-1.125 7.9375 -1.125 7.9375 -4 9 C-7.3125 8.6875 -7.3125 8.6875 -10 8 C-10 7.67 -10 7.34 -10 7 C-8.72125 6.773125 -7.4425 6.54625 -6.125 6.3125 C-3.93067868 5.83899916 -3.93067868 5.83899916 -2 5 C-0.40311361 2.51686936 -0.40311361 2.51686936 0 0 Z " fill="#DD776E" transform="translate(280,196)"/>
<path d="M0 0 C0.66 0 1.32 0 2 0 C1.67 3.3 1.34 6.6 1 10 C-2.75 7.5 -2.75 7.5 -4 5 C-2.71937515 3.2925002 -1.38232443 1.62626404 0 0 Z " fill="#F9B856" transform="translate(188,183)"/>
<path d="M0 0 C0.66 0.33 1.32 0.66 2 1 C1 4 1 4 -1 5 C-1.72693904 6.97888961 -2.39816251 8.97954558 -3 11 C-3.33 11 -3.66 11 -4 11 C-3.38461538 3.49230769 -3.38461538 3.49230769 -1.4375 1 C-0.963125 0.67 -0.48875 0.34 0 0 Z " fill="#D3675D" transform="translate(223,145)"/>
<path d="M0 0 C0.66 0.33 1.32 0.66 2 1 C2.625 3.5625 2.625 3.5625 3 6 C0.625 5.6875 0.625 5.6875 -2 5 C-2.66 4.01 -3.32 3.02 -4 2 C-2.125 0.9375 -2.125 0.9375 0 0 Z " fill="#E68338" transform="translate(205,378)"/>
<path d="M0 0 C0.28875 0.639375 0.5775 1.27875 0.875 1.9375 C1.82823451 4.15206079 1.82823451 4.15206079 4 5 C4.33 4.34 4.66 3.68 5 3 C5.66 4.65 6.32 6.3 7 8 C6.01 8.495 6.01 8.495 5 9 C3.02 7.35 1.04 5.7 -1 4 C-0.67 2.68 -0.34 1.36 0 0 Z " fill="#E37F3A" transform="translate(183,365)"/>
<path d="M0 0 C0.33 0 0.66 0 1 0 C1.99 3.63 2.98 7.26 4 11 C1 10 1 10 -0.25 8.3125 C-1.23749311 5.26772958 -0.7002014 3.08088616 0 0 Z " fill="#E0AC69" transform="translate(149,286)"/>
<path d="M0 0 C0.33 0 0.66 0 1 0 C1.84681133 5.08086796 2.09038099 9.84828377 2 15 C1.01 14.34 0.02 13.68 -1 13 C-0.67 8.71 -0.34 4.42 0 0 Z " fill="#DA7075" transform="translate(354,268)"/>
<path d="M0 0 C1.485 0.99 1.485 0.99 3 2 C2.34 2.66 1.68 3.32 1 4 C1.66 4.33 2.32 4.66 3 5 C3 5.66 3 6.32 3 7 C3.66 7.33 4.32 7.66 5 8 C4.01 8.99 3.02 9.98 2 11 C0.58251068 7.69252492 -0.50358852 4.57416264 -1 1 C-0.67 0.67 -0.34 0.34 0 0 Z " fill="#EB3D31" transform="translate(311,257)"/>
<path d="M0 0 C3 3.75 3 3.75 3 6 C0.625 5.75 0.625 5.75 -2 5 C-3.3125 2.9375 -3.3125 2.9375 -4 1 C-2.68 0.67 -1.36 0.34 0 0 Z " fill="#BE777E" transform="translate(244,240)"/>
<path d="M0 0 C3.83345405 2.78796658 4.22497639 6.5612284 5 11 C4.34 11.66 3.68 12.32 3 13 C2.49242138 11.58603098 1.99425075 10.16868271 1.5 8.75 C1.08234375 7.56664062 1.08234375 7.56664062 0.65625 6.359375 C0 4 0 4 0 0 Z " fill="#D07B6D" transform="translate(331,231)"/>
<path d="M0 0 C0.33 1.32 0.66 2.64 1 4 C-2 5 -2 5 -4.1875 4.0625 C-4.785625 3.711875 -5.38375 3.36125 -6 3 C-6 2.34 -6 1.68 -6 1 C-4 0 -4 0 0 0 Z " fill="#EA422E" transform="translate(252,208)"/>
<path d="M0 0 C0.33 0 0.66 0 1 0 C1 1.65 1 3.3 1 5 C2.32 5.66 3.64 6.32 5 7 C3.68 7 2.36 7 1 7 C1 7.66 1 8.32 1 9 C0.01 9 -0.98 9 -2 9 C-1.51421457 5.87709365 -1.0013988 3.00419641 0 0 Z " fill="#9F1F2B" transform="translate(288,379)"/>
<path d="M0 0 C1.32 0.33 2.64 0.66 4 1 C3.0409375 1.7734375 3.0409375 1.7734375 2.0625 2.5625 C-0.55791681 5.65935623 -0.69389817 8.02067623 -1 12 C-1.33 12 -1.66 12 -2 12 C-2.05422947 10.5629191 -2.09289723 9.12524538 -2.125 7.6875 C-2.14820313 6.88699219 -2.17140625 6.08648437 -2.1953125 5.26171875 C-2 3 -2 3 0 0 Z " fill="#DB2127" transform="translate(272,294)"/>
<path d="M0 0 C3.72413793 4.96551724 3.72413793 4.96551724 4 8 C3.0625 10.75 3.0625 10.75 2 13 C1.67 13 1.34 13 1 13 C0.67 8.71 0.34 4.42 0 0 Z " fill="#D78C41" transform="translate(172,283)"/>
<path d="M0 0 C2.31 0.33 4.62 0.66 7 1 C6.34 2.65 5.68 4.3 5 6 C3.0625 5.25 3.0625 5.25 1 4 C0.25 1.875 0.25 1.875 0 0 Z " fill="#FBDAD4" transform="translate(236,271)"/>
<path d="M0 0 C2.74277578 3.19990508 4.6302836 6.00499382 6 10 C5.01 10.495 5.01 10.495 4 11 C3.67 10.34 3.34 9.68 3 9 C2.01 8.67 1.02 8.34 0 8 C0.33 7.34 0.66 6.68 1 6 C0.67 5.34 0.34 4.68 0 4 C0 2.68 0 1.36 0 0 Z " fill="#EC5F4A" transform="translate(324,223)"/>
<path d="M0 0 C0.33 0 0.66 0 1 0 C0.67 3.63 0.34 7.26 0 11 C-0.66 11 -1.32 11 -2 11 C-1.85957123 9.35369672 -1.71250671 7.70795821 -1.5625 6.0625 C-1.48128906 5.14597656 -1.40007812 4.22945312 -1.31640625 3.28515625 C-1 1 -1 1 0 0 Z " fill="#DFB66E" transform="translate(165,225)"/>
<path d="M0 0 C2.64 0 5.28 0 8 0 C8.33 0.66 8.66 1.32 9 2 C3.375 3.125 3.375 3.125 0 2 C0 1.34 0 0.68 0 0 Z " fill="#D6894E" transform="translate(212,387)"/>
<path d="M0 0 C1.32 0.33 2.64 0.66 4 1 C4.33 2.98 4.66 4.96 5 7 C2.5 5.1875 2.5 5.1875 0 3 C0 2.01 0 1.02 0 0 Z " fill="#E2715D" transform="translate(305,197)"/>
<path d="M0 0 C0.99 0.33 1.98 0.66 3 1 C2.34 3.64 1.68 6.28 1 9 C0.67 9 0.34 9 0 9 C0 7.02 0 5.04 0 3 C-0.66 2.67 -1.32 2.34 -2 2 C-1.34 1.34 -0.68 0.68 0 0 Z " fill="#DECCAE" transform="translate(194,171)"/>
<path d="M0 0 C1.65 0.33 3.3 0.66 5 1 C0.25 5.875 0.25 5.875 -2 7 C-1.34 4.69 -0.68 2.38 0 0 Z " fill="#EF543C" transform="translate(220,157)"/>
<path d="M0 0 C0.33 0.66 0.66 1.32 1 2 C-0.4726862 5.27263601 -1.42695432 6.72014048 -4.6875 8.3125 C-5.450625 8.539375 -6.21375 8.76625 -7 9 C-6.02180976 7.68677212 -5.0424189 6.37443848 -4.0625 5.0625 C-3.51722656 4.33160156 -2.97195312 3.60070312 -2.41015625 2.84765625 C-1 1 -1 1 0 0 Z " fill="#DD9B93" transform="translate(239,121)"/>
<path d="M0 0 C-3.51187196 2.40814077 -5.72656908 3.36629408 -10 3 C-9 1 -9 1 -6.6875 -0.1875 C-3.88010429 -1.03624754 -2.698065 -0.99928333 0 0 Z " fill="#B35A5F" transform="translate(303,382)"/>
<path d="M0 0 C0.66 0.33 1.32 0.66 2 1 C1.67 2.65 1.34 4.3 1 6 C-0.98 6 -2.96 6 -5 6 C-5 5.34 -5 4.68 -5 4 C-4.01 3.67 -3.02 3.34 -2 3 C-1.34 2.01 -0.68 1.02 0 0 Z " fill="#BE2F3D" transform="translate(314,368)"/>
<path d="M0 0 C0.99 0 1.98 0 3 0 C1.70700306 2.88437779 0.34058637 4.87219421 -2 7 C-2.33 5.02 -2.66 3.04 -3 1 C-2.67 1.66 -2.34 2.32 -2 3 C-1.34 3 -0.68 3 0 3 C0 2.01 0 1.02 0 0 Z " fill="#CD5D63" transform="translate(335,348)"/>
<path d="M0 0 C2.0625 0.4375 2.0625 0.4375 4 1 C4 1.66 4 2.32 4 3 C2.68 3 1.36 3 0 3 C0 3.99 0 4.98 0 6 C-0.66 6 -1.32 6 -2 6 C-1.125 1.125 -1.125 1.125 0 0 Z " fill="#CA2A31" transform="translate(335,345)"/>
<path d="M0 0 C1.32 0.33 2.64 0.66 4 1 C4 4.63 4 8.26 4 12 C1.94116077 7.88232154 1.03834872 4.45006595 0 0 Z " fill="#D36E73" transform="translate(284,341)"/>
<path d="M0 0 C0.33 0.66 0.66 1.32 1 2 C0.22265625 4.1640625 0.22265625 4.1640625 -0.9375 6.625 C-1.31777344 7.44226563 -1.69804687 8.25953125 -2.08984375 9.1015625 C-2.39019531 9.72804688 -2.69054687 10.35453125 -3 11 C-3.33 11 -3.66 11 -4 11 C-3.38461538 3.49230769 -3.38461538 3.49230769 -1.4375 1 C-0.963125 0.67 -0.48875 0.34 0 0 Z " fill="#CD6169" transform="translate(349,325)"/>
<path d="M0 0 C0.33 0.66 0.66 1.32 1 2 C-0.24546405 5.73639216 -1.63404953 6.18756513 -5 8 C-5 6.68 -5 5.36 -5 4 C-2.5 1.75 -2.5 1.75 0 0 Z " fill="#E21F2A" transform="translate(345,291)"/>
<path d="M0 0 C1.32 0 2.64 0 4 0 C3.67 1.65 3.34 3.3 3 5 C1.68 4.67 0.36 4.34 -1 4 C-0.67 2.68 -0.34 1.36 0 0 Z " fill="#EB1B21" transform="translate(329,292)"/>
<path d="M0 0 C2.96404505 2.80804268 5.44499019 5.18315774 7 9 C4.625 8.4375 4.625 8.4375 2 7 C0.6875 3.375 0.6875 3.375 0 0 Z " fill="#E9B770" transform="translate(221,284)"/>
<path d="M0 0 C0.66 0.33 1.32 0.66 2 1 C2 3.64 2 6.28 2 9 C1.01 8.67 0.02 8.34 -1 8 C-1.125 2.25 -1.125 2.25 0 0 Z " fill="#CA9B5A" transform="translate(145,271)"/>
<path d="M0 0 C0.99 0.33 1.98 0.66 3 1 C3 3.64 3 6.28 3 9 C2.34 9 1.68 9 1 9 C0.08941469 5.92677456 -0.08886184 3.19902639 0 0 Z " fill="#E95F46" transform="translate(242,135)"/>
<path d="M0 0 C1.98 0.99 1.98 0.99 4 2 C4 3.65 4 5.3 4 7 C3.34 7 2.68 7 2 7 C0 4 0 4 0 0 Z " fill="#C0252C" transform="translate(281,330)"/>
<path d="M0 0 C1.485 0.99 1.485 0.99 3 2 C2.67 3.98 2.34 5.96 2 8 C1.01 7.67 0.02 7.34 -1 7 C-0.67 4.69 -0.34 2.38 0 0 Z " fill="#D51A20" transform="translate(314,310)"/>
<path d="M0 0 C2.31 0.33 4.62 0.66 7 1 C7 1.66 7 2.32 7 3 C7.66 3 8.32 3 9 3 C8.67 3.66 8.34 4.32 8 5 C5.36 4.01 2.72 3.02 0 2 C0 1.34 0 0.68 0 0 Z " fill="#E31E25" transform="translate(289,291)"/>
<path d="M0 0 C-2.93828597 2.50298434 -5.17902761 3.46930939 -9 4 C-9 3.01 -9 2.02 -9 1 C-6.04335481 -0.4783226 -3.25770263 -0.06032783 0 0 Z " fill="#E41D25" transform="translate(285,290)"/>
<path d="M0 0 C-1 3 -1 3 -2 4 C-3.66617115 4.04063832 -5.33388095 4.042721 -7 4 C-7 3.34 -7 2.68 -7 2 C-4.35261084 0.5393715 -3.10551666 0 0 0 Z " fill="#F0B7A6" transform="translate(295,275)"/>
<path d="M0 0 C2.29633824 3.44450737 2.54016485 5.93812283 3 10 C2.01 9.67 1.02 9.34 0 9 C0 6.03 0 3.06 0 0 Z " fill="#D87777" transform="translate(241,230)"/>
<path d="M0 0 C0.33 0.66 0.66 1.32 1 2 C3.52733235 2.65555119 3.52733235 2.65555119 6 3 C5.67 4.32 5.34 5.64 5 7 C5 6.01 5 5.02 5 4 C2.69 4 0.38 4 -2 4 C-1.34 2.68 -0.68 1.36 0 0 Z " fill="#E4694F" transform="translate(315,212)"/>
<path d="M0 0 C0.99 0 1.98 0 3 0 C3 2 3 2 1.125 4 C0.42375 4.66 -0.2775 5.32 -1 6 C-1.66 6.66 -2.32 7.32 -3 8 C-3.33 7.34 -3.66 6.68 -4 6 C-2.1875 3 -2.1875 3 0 0 Z " fill="#F16046" transform="translate(233,133)"/>
<path d="M0 0 C0.66 0 1.32 0 2 0 C1.4140625 6.15234375 1.4140625 6.15234375 1 8 C0.01 8.495 0.01 8.495 -1 9 C-0.67 6.03 -0.34 3.06 0 0 Z " fill="#C63A41" transform="translate(353,302)"/>
<path d="M0 0 C0.99 0.33 1.98 0.66 3 1 C3.33 2.65 3.66 4.3 4 6 C3.01 6.495 3.01 6.495 2 7 C0 4 0 4 0 0 Z " fill="#E1BFB6" transform="translate(303,286)"/>
<path d="M0 0 C1.32 0 2.64 0 4 0 C4.33 0.33 4.66 0.66 5 1 C5.66 0.67 6.32 0.34 7 0 C6.67 1.65 6.34 3.3 6 5 C4.68 4.34 3.36 3.68 2 3 C2 2.34 2 1.68 2 1 C1.34 0.67 0.68 0.34 0 0 Z " fill="#E37169" transform="translate(296,248)"/>
<path d="M0 0 C0.33 0.99 0.66 1.98 1 3 C0.34 3 -0.32 3 -1 3 C-1.33 4.65 -1.66 6.3 -2 8 C-2.66 7.01 -3.32 6.02 -4 5 C-2.25 1.125 -2.25 1.125 0 0 Z " fill="#DC8741" transform="translate(254,374)"/>
<path d="M0 0 C2.475 0.495 2.475 0.495 5 1 C5.33 2.32 5.66 3.64 6 5 C2.83884224 3.63016497 2.0072908 3.0109362 0 0 Z " fill="#CA8E67" transform="translate(175,365)"/>
<path d="M0 0 C0.66 0.33 1.32 0.66 2 1 C1.67 2.65 1.34 4.3 1 6 C0.01 5.67 -0.98 5.34 -2 5 C-1.125 1.125 -1.125 1.125 0 0 Z " fill="#E16249" transform="translate(322,218)"/>
</svg>
